<?xml version="1.0" encoding="UTF-8" standalone="no"?><!DOCTYPE svg PUBLIC "-//W3C//DTD SVG 1.1//EN" "http://www.w3.org/Graphics/SVG/1.1/DTD/svg11.dtd"><!-- Generated by graphviz version 2.39.20160930.0541 (20160930.0541) --><!-- Title: FlowChart Pages: 1 --><svg width="420pt" height="797pt" viewBox="0.00 0.00 420.12 797" xmlns="http://www.w3.org/2000/svg" xmlns:xlink="http://www.w3.org/1999/xlink"><defs><radialGradient id="g-terminator1bz93vp86vz9w3mx869a4i" cx="0.5" cy="0.5" fx="0.9" fy="0.9" r="1" x1="0%" x2="0%" y1="100%" y2="0%" spreadMethod="pad"><stop offset="0%" stop-color="#C32F06" stop-opacity="1"/><stop offset="100%" stop-color="#C32F06" stop-opacity="1"/></radialGradient><radialGradient id="g-decision1bz93vp86vz9w3mx869a4i" cx="0.5" cy="0.5" fx="0.9" fy="0.9" r="1" x1="0%" x2="0%" y1="100%" y2="0%" spreadMethod="pad"><stop offset="0%" stop-color="#d1461b" stop-opacity="1"/><stop offset="100%" stop-color="#d1461b" stop-opacity="1"/></radialGradient><radialGradient id="g-process1bz93vp86vz9w3mx869a4i" cx="0.5" cy="0.5" fx="0.9" fy="0.9" r="1" x1="0%" x2="0%" y1="100%" y2="0%" spreadMethod="pad"><stop offset="0%" stop-color="#3f51b5" stop-opacity="1"/><stop offset="100%" stop-color="#3f51b5" stop-opacity="1"/></radialGradient><radialGradient id="g-default1bz93vp86vz9w3mx869a4i" cx="0.5" cy="0.5" fx="0.9" fy="0.9" r="1" x1="0%" x2="0%" y1="100%" y2="0%" spreadMethod="pad"><stop offset="0%" stop-color="#005100" stop-opacity="1"/><stop offset="100%" stop-color="#005100" stop-opacity="1"/></radialGradient><radialGradient id="g-module1bz93vp86vz9w3mx869a4i" cx="0.5" cy="0.5" fx="0.9" fy="0.9" r="1" x1="0%" x2="0%" y1="100%" y2="0%" spreadMethod="pad"><stop offset="0%" stop-color="#009688" stop-opacity="1"/><stop offset="100%" stop-color="#009688" stop-opacity="1"/></radialGradient><radialGradient id="g-dataio1bz93vp86vz9w3mx869a4i" cx="0.5" cy="0.5" fx="0.9" fy="0.9" r="1" x1="0%" x2="0%" y1="100%" y2="0%" spreadMethod="pad"><stop offset="0%" stop-color="#607d8b" stop-opacity="1"/><stop offset="100%" stop-color="#607d8b" stop-opacity="1"/></radialGradient><radialGradient id="g-preparation1bz93vp86vz9w3mx869a4i" cx="0.5" cy="0.5" fx="0.9" fy="0.9" r="1" x1="0%" x2="0%" y1="100%" y2="0%" spreadMethod="pad"><stop offset="0%" stop-color="#607d8b" stop-opacity="1"/><stop offset="100%" stop-color="#607d8b" stop-opacity="1"/></radialGradient><radialGradient id="g-comment1bz93vp86vz9w3mx869a4i" cx="0.5" cy="0.5" fx="0.9" fy="0.9" r="1" x1="0%" x2="0%" y1="100%" y2="0%" spreadMethod="pad"><stop offset="0%" stop-color="#ffab40" stop-opacity="1"/><stop offset="100%" stop-color="#ffab40" stop-opacity="1"/></radialGradient><radialGradient id="g-manual1bz93vp86vz9w3mx869a4i" cx="0.5" cy="0.5" fx="0.9" fy="0.9" r="1" x1="0%" x2="0%" y1="100%" y2="0%" spreadMethod="pad"><stop offset="0%" stop-color="#673ab7" stop-opacity="1"/><stop offset="100%" stop-color="#673ab7" stop-opacity="1"/></radialGradient></defs><g id="page0,1_graph0" class="graph" transform="scale(0.440918 0.440918) rotate(0) translate(4 1792.25)"><title>FlowChart</title><g id="clust3" class="cluster"><title>cluster_block_7</title><polygon fill="transparent" stroke="#000000" points="583.5,-536.983 583.5,-653.966 819.5,-653.966 819.5,-536.983 583.5,-536.983"/><text text-anchor="start" x="668" y="-641.966" font-family="Open Sans" font-size="10.00" fill="#000000">prompt motor</text></g><g id="clust4" class="cluster"><title>cluster_block_9</title><polygon fill="transparent" stroke="#000000" points="583.5,-260 583.5,-376.983 925.5,-376.983 925.5,-260 583.5,-260"/><text text-anchor="start" x="725.5" y="-364.983" font-family="Open Sans" font-size="10.00" fill="#000000">prompt PNE</text></g><g id="clust1" class="cluster"><title>cluster_block_3</title><polygon fill="transparent" stroke="#000000" points="583.5,-1110.5 583.5,-1274.16 895.5,-1274.16 895.5,-1110.5 583.5,-1110.5"/><text text-anchor="start" x="696" y="-1262.16" font-family="Open Sans" font-size="10.00" fill="#000000">prompt adicionais</text></g><g id="clust2" class="cluster"><title>cluster_block_5</title><polygon fill="transparent" stroke="#000000" points="583.5,-817.966 583.5,-950.505 799.5,-950.505 799.5,-817.966 583.5,-817.966"/><text text-anchor="start" x="665" y="-938.505" font-family="Open Sans" font-size="10.00" fill="#000000">prompt cor</text></g><g id="clust5" class="cluster"><title>cluster_block_1</title><polygon fill="transparent" stroke="#000000" points="537.5,-1434.16 537.5,-1582.25 831.5,-1582.25 831.5,-1434.16 537.5,-1434.16"/><text text-anchor="start" x="647.5" y="-1570.25" font-family="Open Sans" font-size="10.00" fill="#000000">prompt modelo</text></g><!-- process_block_26 --><g id="node1" class="node"><title>process_block_26</title><polygon fill="url(#g-process1bz93vp86vz9w3mx869a4i)" stroke="#3f51b5" points="283.5,-994.505 213.5,-994.505 213.5,-958.505 283.5,-958.505 283.5,-994.505"/><text text-anchor="start" x="220.5" y="-974.005" font-family="Open Sans" font-size="10.00" fill="white">adc = 2.000</text></g><!-- module_block_29 --><g id="node24" class="node"><title>module_block_29</title><polygon fill="url(#g-module1bz93vp86vz9w3mx869a4i)" stroke="#009688" points="353.5,-855.735 353.5,-892.735 355.5,-892.735 355.5,-855.735 353.5,-855.735"/><polygon fill="url(#g-module1bz93vp86vz9w3mx869a4i)" stroke="#009688" points="355.5,-855.735 355.5,-892.735 434.5,-892.735 434.5,-855.735 355.5,-855.735"/><text text-anchor="start" x="368.5" y="-871.735" font-family="Open Sans" font-size="10.00" fill="white">prompt cor</text><polygon fill="url(#g-module1bz93vp86vz9w3mx869a4i)" stroke="#009688" points="434.5,-855.735 434.5,-892.735 437.5,-892.735 437.5,-855.735 434.5,-855.735"/></g><!-- process_block_26&#45;&gt;module_block_29 --><g id="edge24" class="edge"><title>process_block_26->module_block_29</title><path fill="none" stroke="#000000" d="M274.781,-958.31C298.523,-941.873 333.666,-917.544 359.919,-899.368"/><polygon fill="#000000" stroke="#000000" points="362.223,-902.03 368.452,-893.46 358.238,-896.275 362.223,-902.03"/></g><!-- terminator_block_4 --><g id="node2" class="node"><title>terminator_block_4</title><ellipse fill="url(#g-terminator1bz93vp86vz9w3mx869a4i)" stroke="#C32F06" cx="739.5" cy="-1182.83" rx="135.529" ry="52.1524"/><text text-anchor="start" x="663" y="-1207.83" font-family="Open Sans" font-size="10.00" fill="white">"Escolha os tipos de adicionais"</text><text text-anchor="start" x="660" y="-1196.83" font-family="Open Sans" font-size="10.00" fill="white">"1) Ar condicionado -R$ 3.000,00"</text><text text-anchor="start" x="682" y="-1185.83" font-family="Open Sans" font-size="10.00" fill="white">"2) Air Bag -R$ 2.000,00"</text><text text-anchor="start" x="654" y="-1174.83" font-family="Open Sans" font-size="10.00" fill="white">"3) Direcao eletronica -R$ 1.000,00"</text><text text-anchor="start" x="651.5" y="-1163.83" font-family="Open Sans" font-size="10.00" fill="white">"4) Cambio Automatico -R$ 4.000,00"</text><text text-anchor="start" x="709" y="-1152.83" font-family="Open Sans" font-size="10.00" fill="white">"5) Nenhum"</text></g><!-- terminator_block_6 --><g id="node3" class="node"><title>terminator_block_6</title><ellipse fill="url(#g-terminator1bz93vp86vz9w3mx869a4i)" stroke="#C32F06" cx="691.5" cy="-874.735" rx="88.2768" ry="36.5405"/><text text-anchor="start" x="637" y="-888.735" font-family="Open Sans" font-size="10.00" fill="white">"Escolha o tipo de cor"</text><text text-anchor="start" x="667" y="-877.735" font-family="Open Sans" font-size="10.00" fill="white">"1) Solida"</text><text text-anchor="start" x="660.5" y="-866.735" font-family="Open Sans" font-size="10.00" fill="white">"2) Metalica"</text><text text-anchor="start" x="647.5" y="-855.735" font-family="Open Sans" font-size="10.00" fill="white">"3) Personalizada"</text></g><!-- terminator_block_8 --><g id="node4" class="node"><title>terminator_block_8</title><ellipse fill="url(#g-terminator1bz93vp86vz9w3mx869a4i)" stroke="#C32F06" cx="701.5" cy="-585.974" rx="98.0761" ry="28.9828"/><text text-anchor="start" x="640" y="-594.474" font-family="Open Sans" font-size="10.00" fill="white">"Escolha o tipo de motor"</text><text text-anchor="start" x="668" y="-583.474" font-family="Open Sans" font-size="10.00" fill="white">"1) Motor 1.0"</text><text text-anchor="start" x="668" y="-572.474" font-family="Open Sans" font-size="10.00" fill="white">"2) Motor 2.0"</text></g><!-- terminator_block_10 --><g id="node5" class="node"><title>terminator_block_10</title><ellipse fill="url(#g-terminator1bz93vp86vz9w3mx869a4i)" stroke="#C32F06" cx="754.5" cy="-308.991" rx="150.728" ry="28.9828"/><text text-anchor="start" x="656" y="-317.491" font-family="Open Sans" font-size="10.00" fill="white">"É portador de necessidades especiais ?"</text><text text-anchor="start" x="736" y="-306.491" font-family="Open Sans" font-size="10.00" fill="white">"1) SIM"</text><text text-anchor="start" x="734.5" y="-295.491" font-family="Open Sans" font-size="10.00" fill="white">"2) Não"</text></g><!-- terminator_block_11 --><g id="node6" class="node"><title>terminator_block_11</title><ellipse fill="url(#g-terminator1bz93vp86vz9w3mx869a4i)" stroke="#C32F06" cx="476.5" cy="-1770.25" rx="27" ry="18"/><text text-anchor="start" x="463.5" y="-1767.75" font-family="Open Sans" font-size="10.00" fill="white">Inicio</text></g><!-- process_block_12 --><g id="node7" class="node"><title>process_block_12</title><polygon fill="url(#g-process1bz93vp86vz9w3mx869a4i)" stroke="#3f51b5" points="612.5,-1734.25 340.5,-1734.25 340.5,-1698.25 612.5,-1698.25 612.5,-1734.25"/><text text-anchor="start" x="347.5" y="-1719.25" font-family="Open Sans" font-size="10.00" fill="white">"Vamos calcular o valor total da compra de um carro"</text><text text-anchor="start" x="370" y="-1708.25" font-family="Open Sans" font-size="10.00" fill="white">"Informe quantos pontos possui na carteira"</text></g><!-- terminator_block_11&#45;&gt;process_block_12 --><g id="edge1" class="edge"><title>terminator_block_11->process_block_12</title><path fill="none" stroke="#000000" d="M476.5,-1751.97C476.5,-1749.59 476.5,-1747.12 476.5,-1744.63"/><polygon fill="#000000" stroke="#000000" points="480,-1744.51 476.5,-1734.51 473,-1744.52 480,-1744.51"/></g><!-- process_block_13 --><g id="node8" class="node"><title>process_block_13</title><polygon fill="url(#g-process1bz93vp86vz9w3mx869a4i)" stroke="#3f51b5" points="505,-1680.25 448,-1680.25 448,-1644.25 505,-1644.25 505,-1680.25"/><text text-anchor="start" x="455" y="-1659.75" font-family="Open Sans" font-size="10.00" fill="white">leia pont</text></g><!-- process_block_12&#45;&gt;process_block_13 --><g id="edge2" class="edge"><title>process_block_12->process_block_13</title><path fill="none" stroke="#000000" d="M476.5,-1697.97C476.5,-1695.59 476.5,-1693.12 476.5,-1690.63"/><polygon fill="#000000" stroke="#000000" points="480,-1690.51 476.5,-1680.51 473,-1690.52 480,-1690.51"/></g><!-- ifs_block_14 --><g id="node9" class="node"><title>ifs_block_14</title><polygon fill="url(#g-decision1bz93vp86vz9w3mx869a4i)" stroke="#d1461b" points="476.5,-1626.25 428.43,-1608.25 476.5,-1590.25 524.57,-1608.25 476.5,-1626.25"/><text text-anchor="start" x="455.5" y="-1605.75" font-family="Open Sans" font-size="10.00" fill="white">ponT &lt; 7</text></g><!-- process_block_13&#45;&gt;ifs_block_14 --><g id="edge3" class="edge"><title>process_block_13->ifs_block_14</title><path fill="none" stroke="#000000" d="M476.5,-1643.97C476.5,-1641.59 476.5,-1639.12 476.5,-1636.63"/><polygon fill="#000000" stroke="#000000" points="480,-1636.51 476.5,-1626.51 473,-1636.52 480,-1636.51"/></g><!-- module_block_15 --><g id="node10" class="node"><title>module_block_15</title><polygon fill="url(#g-module1bz93vp86vz9w3mx869a4i)" stroke="#009688" points="389.5,-1479.7 389.5,-1516.7 391.5,-1516.7 391.5,-1479.7 389.5,-1479.7"/><polygon fill="url(#g-module1bz93vp86vz9w3mx869a4i)" stroke="#009688" points="391.5,-1479.7 391.5,-1516.7 491.5,-1516.7 491.5,-1479.7 391.5,-1479.7"/><text text-anchor="start" x="404.5" y="-1495.7" font-family="Open Sans" font-size="10.00" fill="white">prompt modelo</text><polygon fill="url(#g-module1bz93vp86vz9w3mx869a4i)" stroke="#009688" points="491.5,-1479.7 491.5,-1516.7 494.5,-1516.7 494.5,-1479.7 491.5,-1479.7"/></g><!-- ifs_block_14&#45;&gt;module_block_15 --><g id="edge4" class="edge"><title>ifs_block_14->module_block_15</title><path fill="none" stroke="#000000" d="M471.336,-1592.09C465.878,-1575 457.162,-1547.73 450.557,-1527.05"/><polygon fill="#000000" stroke="#000000" points="453.885,-1525.97 447.508,-1517.51 447.217,-1528.1 453.885,-1525.97"/><text text-anchor="start" x="398.466" y="-1558.94" font-family="Open Sans" font-weight="bold" font-size="10.00" fill="#000000"> Verdadeiro </text></g><!-- process_block_46 --><g id="node41" class="node"><title>process_block_46</title><polygon fill="url(#g-process1bz93vp86vz9w3mx869a4i)" stroke="#3f51b5" points="673,-1426.16 440,-1426.16 440,-1390.16 673,-1390.16 673,-1426.16"/><text text-anchor="start" x="447" y="-1405.66" font-family="Open Sans" font-size="10.00" fill="white">"Você não esta habilitado a compra do carro"</text></g><!-- ifs_block_14&#45;&gt;process_block_46 --><g id="edge50" class="edge"><title>ifs_block_14->process_block_46</title><path fill="none" stroke="#000000" d="M490.283,-1595.16C493.717,-1591.29 497.1,-1586.85 499.5,-1582.25 529.391,-1525.03 507.746,-1497.52 535.784,-1435.61"/><polygon fill="#000000" stroke="#000000" points="539.12,-1436.75 540.294,-1426.22 532.81,-1433.72 539.12,-1436.75"/><text text-anchor="start" x="518.294" y="-1515.2" font-family="Open Sans" font-weight="bold" font-size="10.00" fill="#000000"> Falso </text></g><!-- process_block_16 --><g id="node11" class="node"><title>process_block_16</title><polygon fill="url(#g-process1bz93vp86vz9w3mx869a4i)" stroke="#3f51b5" points="429,-1426.16 364,-1426.16 364,-1390.16 429,-1390.16 429,-1426.16"/><text text-anchor="start" x="371" y="-1405.66" font-family="Open Sans" font-size="10.00" fill="white">leia model</text></g><!-- module_block_15&#45;&gt;process_block_16 --><g id="edge6" class="edge"><title>module_block_15->process_block_16</title><path fill="none" stroke="#000000" d="M432.176,-1479.94C425.756,-1467.02 417.127,-1449.66 409.963,-1435.25"/><polygon fill="#000000" stroke="#000000" points="413.09,-1433.67 405.505,-1426.28 406.821,-1436.79 413.09,-1433.67"/></g><!-- terminator_block_2 --><g id="node21" class="node"><title>terminator_block_2</title><ellipse fill="url(#g-terminator1bz93vp86vz9w3mx869a4i)" stroke="#C32F06" cx="684.5" cy="-1498.7" rx="127.059" ry="44.5955"/><text text-anchor="start" x="602.5" y="-1518.2" font-family="Open Sans" font-size="10.00" fill="white">"Escolha abaixo os tipos de carro"</text><text text-anchor="start" x="632.5" y="-1507.2" font-family="Open Sans" font-size="10.00" fill="white">"1)Uno -R$ 30.000,00"</text><text text-anchor="start" x="632.5" y="-1496.2" font-family="Open Sans" font-size="10.00" fill="white">"2)Uno -R$ 40.000,00"</text><text text-anchor="start" x="615" y="-1485.2" font-family="Open Sans" font-size="10.00" fill="white">"3)New Fiesta -R$ 50.000,00"</text><text text-anchor="start" x="619" y="-1474.2" font-family="Open Sans" font-size="10.00" fill="white">"4)Honda Fit -R$ 60.000,00"</text></g><!-- module_block_15&#45;&gt;terminator_block_2 --><g id="edge5" class="edge"><title>module_block_15->terminator_block_2</title><path fill="none" stroke="#000000" stroke-dasharray="1,5" d="M494.182,-1498.7C515.122,-1498.7 536.062,-1498.7 557.002,-1498.7"/></g><!-- switch_block_17 --><g id="node12" class="node"><title>switch_block_17</title><polygon fill="url(#g-decision1bz93vp86vz9w3mx869a4i)" stroke="#d1461b" points="396.5,-1372.16 358.409,-1354.16 396.5,-1336.16 434.591,-1354.16 396.5,-1372.16"/><text text-anchor="start" x="381.5" y="-1351.66" font-family="Open Sans" font-size="10.00" fill="white">model</text></g><!-- process_block_16&#45;&gt;switch_block_17 --><g id="edge7" class="edge"><title>process_block_16->switch_block_17</title><path fill="none" stroke="#000000" d="M396.5,-1389.87C396.5,-1387.5 396.5,-1385.02 396.5,-1382.53"/><polygon fill="#000000" stroke="#000000" points="400,-1382.42 396.5,-1372.42 393,-1382.42 400,-1382.42"/></g><!-- process_block_18 --><g id="node13" class="node"><title>process_block_18</title><polygon fill="url(#g-process1bz93vp86vz9w3mx869a4i)" stroke="#3f51b5" points="241,-1318.16 152,-1318.16 152,-1282.16 241,-1282.16 241,-1318.16"/><text text-anchor="start" x="159" y="-1297.66" font-family="Open Sans" font-size="10.00" fill="white">model = 60.000</text></g><!-- switch_block_17&#45;&gt;process_block_18 --><g id="edge8" class="edge"><title>switch_block_17->process_block_18</title><path fill="none" stroke="#000000" d="M369.71,-1348.66C341.583,-1342.69 295.893,-1332.42 250.989,-1319.41"/><polygon fill="#000000" stroke="#000000" points="251.707,-1315.97 241.125,-1316.5 249.726,-1322.68 251.707,-1315.97"/><text text-anchor="start" x="293.373" y="-1337.93" font-family="Open Sans" font-weight="bold" font-size="10.00" fill="#000000"> 1 </text></g><!-- process_block_19 --><g id="node14" class="node"><title>process_block_19</title><polygon fill="url(#g-process1bz93vp86vz9w3mx869a4i)" stroke="#3f51b5" points="341,-1318.16 252,-1318.16 252,-1282.16 341,-1282.16 341,-1318.16"/><text text-anchor="start" x="259" y="-1297.66" font-family="Open Sans" font-size="10.00" fill="white">model = 40.000</text></g><!-- switch_block_17&#45;&gt;process_block_19 --><g id="edge9" class="edge"><title>switch_block_17->process_block_19</title><path fill="none" stroke="#000000" d="M378.622,-1344.5C367.562,-1338.53 352.865,-1330.59 338.964,-1323.09"/><polygon fill="#000000" stroke="#000000" points="340.452,-1319.91 329.99,-1318.24 337.126,-1326.07 340.452,-1319.91"/><text text-anchor="start" x="342.054" y="-1335.24" font-family="Open Sans" font-weight="bold" font-size="10.00" fill="#000000"> 2 </text></g><!-- process_block_20 --><g id="node15" class="node"><title>process_block_20</title><polygon fill="url(#g-process1bz93vp86vz9w3mx869a4i)" stroke="#3f51b5" points="441,-1318.16 352,-1318.16 352,-1282.16 441,-1282.16 441,-1318.16"/><text text-anchor="start" x="359" y="-1297.66" font-family="Open Sans" font-size="10.00" fill="white">model = 30.000</text></g><!-- switch_block_17&#45;&gt;process_block_20 --><g id="edge10" class="edge"><title>switch_block_17->process_block_20</title><path fill="none" stroke="#000000" d="M396.5,-1335.87C396.5,-1333.5 396.5,-1331.02 396.5,-1328.53"/><polygon fill="#000000" stroke="#000000" points="400,-1328.42 396.5,-1318.42 393,-1328.42 400,-1328.42"/><text text-anchor="start" x="384.5" y="-1321.65" font-family="Open Sans" font-weight="bold" font-size="10.00" fill="#000000"> 3 </text></g><!-- process_block_21 --><g id="node16" class="node"><title>process_block_21</title><polygon fill="url(#g-process1bz93vp86vz9w3mx869a4i)" stroke="#3f51b5" points="541,-1318.16 452,-1318.16 452,-1282.16 541,-1282.16 541,-1318.16"/><text text-anchor="start" x="459" y="-1297.66" font-family="Open Sans" font-size="10.00" fill="white">model = 20.000</text></g><!-- switch_block_17&#45;&gt;process_block_21 --><g id="edge11" class="edge"><title>switch_block_17->process_block_21</title><path fill="none" stroke="#000000" d="M414.378,-1344.5C425.438,-1338.53 440.135,-1330.59 454.036,-1323.09"/><polygon fill="#000000" stroke="#000000" points="455.874,-1326.07 463.01,-1318.24 452.548,-1319.91 455.874,-1326.07"/><text text-anchor="start" x="426.946" y="-1324.24" font-family="Open Sans" font-weight="bold" font-size="10.00" fill="#000000"> 4 </text></g><!-- module_block_22 --><g id="node17" class="node"><title>module_block_22</title><polygon fill="url(#g-module1bz93vp86vz9w3mx869a4i)" stroke="#009688" points="337.5,-1163.83 337.5,-1200.83 339.5,-1200.83 339.5,-1163.83 337.5,-1163.83"/><polygon fill="url(#g-module1bz93vp86vz9w3mx869a4i)" stroke="#009688" points="339.5,-1163.83 339.5,-1200.83 452.5,-1200.83 452.5,-1163.83 339.5,-1163.83"/><text text-anchor="start" x="352.5" y="-1179.83" font-family="Open Sans" font-size="10.00" fill="white">prompt adicionais</text><polygon fill="url(#g-module1bz93vp86vz9w3mx869a4i)" stroke="#009688" points="452.5,-1163.83 452.5,-1200.83 455.5,-1200.83 455.5,-1163.83 452.5,-1163.83"/></g><!-- process_block_18&#45;&gt;module_block_22 --><g id="edge12" class="edge"><title>process_block_18->module_block_22</title><path fill="none" stroke="#000000" d="M227.312,-1282.08C261.802,-1261.85 317.829,-1228.98 355.877,-1206.66"/><polygon fill="#000000" stroke="#000000" points="357.806,-1209.59 364.661,-1201.51 354.264,-1203.55 357.806,-1209.59"/></g><!-- process_block_19&#45;&gt;module_block_22 --><g id="edge13" class="edge"><title>process_block_19->module_block_22</title><path fill="none" stroke="#000000" d="M311.906,-1282.08C328.496,-1262.62 355.052,-1231.46 373.983,-1209.25"/><polygon fill="#000000" stroke="#000000" points="376.757,-1211.39 380.58,-1201.51 371.43,-1206.85 376.757,-1211.39"/></g><!-- process_block_20&#45;&gt;module_block_22 --><g id="edge14" class="edge"><title>process_block_20->module_block_22</title><path fill="none" stroke="#000000" d="M396.5,-1282.08C396.5,-1263.3 396.5,-1233.63 396.5,-1211.62"/><polygon fill="#000000" stroke="#000000" points="400,-1211.51 396.5,-1201.51 393,-1211.51 400,-1211.51"/></g><!-- process_block_21&#45;&gt;module_block_22 --><g id="edge15" class="edge"><title>process_block_21->module_block_22</title><path fill="none" stroke="#000000" d="M481.094,-1282.08C464.504,-1262.62 437.948,-1231.46 419.017,-1209.25"/><polygon fill="#000000" stroke="#000000" points="421.57,-1206.85 412.42,-1201.51 416.243,-1211.39 421.57,-1206.85"/></g><!-- module_block_22&#45;&gt;terminator_block_4 --><g id="edge16" class="edge"><title>module_block_22->terminator_block_4</title><path fill="none" stroke="#000000" stroke-dasharray="1,5" d="M455.788,-1182.83C505.013,-1182.83 554.238,-1182.83 603.462,-1182.83"/></g><!-- process_block_23 --><g id="node18" class="node"><title>process_block_23</title><polygon fill="url(#g-process1bz93vp86vz9w3mx869a4i)" stroke="#3f51b5" points="423.5,-1102.5 369.5,-1102.5 369.5,-1066.5 423.5,-1066.5 423.5,-1102.5"/><text text-anchor="start" x="377.5" y="-1082" font-family="Open Sans" font-size="10.00" fill="white">leia adc</text></g><!-- module_block_22&#45;&gt;process_block_23 --><g id="edge17" class="edge"><title>module_block_22->process_block_23</title><path fill="none" stroke="#000000" d="M396.5,-1163.87C396.5,-1149.41 396.5,-1129.24 396.5,-1112.86"/><polygon fill="#000000" stroke="#000000" points="400,-1112.74 396.5,-1102.74 393,-1112.74 400,-1112.74"/></g><!-- switch_block_24 --><g id="node19" class="node"><title>switch_block_24</title><polygon fill="url(#g-decision1bz93vp86vz9w3mx869a4i)" stroke="#d1461b" points="396.5,-1048.5 369.055,-1030.5 396.5,-1012.5 423.945,-1030.5 396.5,-1048.5"/><text text-anchor="start" x="388" y="-1028" font-family="Open Sans" font-size="10.00" fill="white">adc</text></g><!-- process_block_23&#45;&gt;switch_block_24 --><g id="edge18" class="edge"><title>process_block_23->switch_block_24</title><path fill="none" stroke="#000000" d="M396.5,-1066.22C396.5,-1063.85 396.5,-1061.37 396.5,-1058.88"/><polygon fill="#000000" stroke="#000000" points="400,-1058.77 396.5,-1048.77 393,-1058.77 400,-1058.77"/></g><!-- switch_block_24&#45;&gt;process_block_26 --><g id="edge20" class="edge"><title>switch_block_24->process_block_26</title><path fill="none" stroke="#000000" d="M377.564,-1024.83C357.789,-1018.77 325.7,-1008.57 293.334,-996.294"/><polygon fill="#000000" stroke="#000000" points="294.343,-992.932 283.753,-992.601 291.825,-999.463 294.343,-992.932"/><text text-anchor="start" x="318.419" y="-1013.61" font-family="Open Sans" font-weight="bold" font-size="10.00" fill="#000000"> 2 </text></g><!-- process_block_25 --><g id="node20" class="node"><title>process_block_25</title><polygon fill="url(#g-process1bz93vp86vz9w3mx869a4i)" stroke="#3f51b5" points="364.5,-994.505 294.5,-994.505 294.5,-958.505 364.5,-958.505 364.5,-994.505"/><text text-anchor="start" x="301.5" y="-974.005" font-family="Open Sans" font-size="10.00" fill="white">adc = 3.000</text></g><!-- switch_block_24&#45;&gt;process_block_25 --><g id="edge19" class="edge"><title>switch_block_24->process_block_25</title><path fill="none" stroke="#000000" d="M383.898,-1020.35C377.118,-1014.88 368.438,-1007.89 360.012,-1001.1"/><polygon fill="#000000" stroke="#000000" points="362.063,-998.254 352.081,-994.704 357.671,-1003.7 362.063,-998.254"/><text text-anchor="start" x="355.92" y="-1011.47" font-family="Open Sans" font-weight="bold" font-size="10.00" fill="#000000"> 1 </text></g><!-- process_block_27 --><g id="node22" class="node"><title>process_block_27</title><polygon fill="url(#g-process1bz93vp86vz9w3mx869a4i)" stroke="#3f51b5" points="445.5,-994.505 375.5,-994.505 375.5,-958.505 445.5,-958.505 445.5,-994.505"/><text text-anchor="start" x="382.5" y="-974.005" font-family="Open Sans" font-size="10.00" fill="white">adc = 1.000</text></g><!-- switch_block_24&#45;&gt;process_block_27 --><g id="edge21" class="edge"><title>switch_block_24->process_block_27</title><path fill="none" stroke="#000000" d="M400.549,-1014.89C401.399,-1011.61 402.319,-1008.06 403.246,-1004.49"/><polygon fill="#000000" stroke="#000000" points="406.696,-1005.12 405.818,-994.563 399.92,-1003.36 406.696,-1005.12"/><text text-anchor="start" x="391.159" y="-997.821" font-family="Open Sans" font-weight="bold" font-size="10.00" fill="#000000"> 3 </text></g><!-- process_block_28 --><g id="node23" class="node"><title>process_block_28</title><polygon fill="url(#g-process1bz93vp86vz9w3mx869a4i)" stroke="#3f51b5" points="526.5,-994.505 456.5,-994.505 456.5,-958.505 526.5,-958.505 526.5,-994.505"/><text text-anchor="start" x="463.5" y="-974.005" font-family="Open Sans" font-size="10.00" fill="white">adc = 4.000</text></g><!-- switch_block_24&#45;&gt;process_block_28 --><g id="edge22" class="edge"><title>switch_block_24->process_block_28</title><path fill="none" stroke="#000000" d="M411.344,-1022.07C421.875,-1016.08 436.556,-1007.74 450.48,-999.821"/><polygon fill="#000000" stroke="#000000" points="452.506,-1002.7 459.47,-994.711 449.046,-996.61 452.506,-1002.7"/><text text-anchor="start" x="423.402" y="-1001.39" font-family="Open Sans" font-weight="bold" font-size="10.00" fill="#000000"> 4 </text></g><!-- process_block_25&#45;&gt;module_block_29 --><g id="edge23" class="edge"><title>process_block_25->module_block_29</title><path fill="none" stroke="#000000" d="M341.299,-958.31C351.403,-942.731 366.105,-920.061 377.649,-902.261"/><polygon fill="#000000" stroke="#000000" points="380.851,-903.755 383.356,-893.46 374.978,-899.946 380.851,-903.755"/></g><!-- process_block_27&#45;&gt;module_block_29 --><g id="edge25" class="edge"><title>process_block_27->module_block_29</title><path fill="none" stroke="#000000" d="M407.818,-958.31C405.585,-943.159 402.364,-921.303 399.775,-903.742"/><polygon fill="#000000" stroke="#000000" points="403.181,-902.843 398.26,-893.46 396.256,-903.864 403.181,-902.843"/></g><!-- process_block_28&#45;&gt;module_block_29 --><g id="edge26" class="edge"><title>process_block_28->module_block_29</title><path fill="none" stroke="#000000" d="M474.337,-958.31C459.236,-942.302 437.074,-918.808 420.09,-900.803"/><polygon fill="#000000" stroke="#000000" points="422.572,-898.333 413.164,-893.46 417.48,-903.136 422.572,-898.333"/></g><!-- module_block_29&#45;&gt;terminator_block_6 --><g id="edge27" class="edge"><title>module_block_29->terminator_block_6</title><path fill="none" stroke="#000000" stroke-dasharray="1,5" d="M437.703,-874.735C492.725,-874.735 547.748,-874.735 602.77,-874.735"/></g><!-- process_block_30 --><g id="node25" class="node"><title>process_block_30</title><polygon fill="url(#g-process1bz93vp86vz9w3mx869a4i)" stroke="#3f51b5" points="407.5,-807.966 353.5,-807.966 353.5,-771.966 407.5,-771.966 407.5,-807.966"/><text text-anchor="start" x="362.5" y="-787.466" font-family="Open Sans" font-size="10.00" fill="white">leia cor</text></g><!-- module_block_29&#45;&gt;process_block_30 --><g id="edge28" class="edge"><title>module_block_29->process_block_30</title><path fill="none" stroke="#000000" d="M392.171,-855.922C390.202,-844.795 387.671,-830.489 385.469,-818.047"/><polygon fill="#000000" stroke="#000000" points="388.906,-817.381 383.717,-808.144 382.013,-818.601 388.906,-817.381"/></g><!-- switch_block_31 --><g id="node26" class="node"><title>switch_block_31</title><polygon fill="url(#g-decision1bz93vp86vz9w3mx869a4i)" stroke="#d1461b" points="427.5,-751.966 400.5,-733.966 427.5,-715.966 454.5,-733.966 427.5,-751.966"/><text text-anchor="start" x="420" y="-731.466" font-family="Open Sans" font-size="10.00" fill="white">cor</text></g><!-- process_block_30&#45;&gt;switch_block_31 --><g id="edge29" class="edge"><title>process_block_30->switch_block_31</title><path fill="none" stroke="#000000" d="M395.63,-771.939C400.574,-766.047 406.087,-759.479 411.119,-753.483"/><polygon fill="#000000" stroke="#000000" points="413.837,-755.689 417.585,-745.78 408.475,-751.189 413.837,-755.689"/></g><!-- process_block_32 --><g id="node27" class="node"><title>process_block_32</title><polygon fill="url(#g-process1bz93vp86vz9w3mx869a4i)" stroke="#3f51b5" points="382.5,-697.966 328.5,-697.966 328.5,-661.966 382.5,-661.966 382.5,-697.966"/><text text-anchor="start" x="339" y="-677.466" font-family="Open Sans" font-size="10.00" fill="white">cor = 0</text></g><!-- switch_block_31&#45;&gt;process_block_32 --><g id="edge30" class="edge"><title>switch_block_31->process_block_32</title><path fill="none" stroke="#000000" d="M414.628,-724.311C407.12,-718.68 397.284,-711.303 387.795,-704.187"/><polygon fill="#000000" stroke="#000000" points="389.713,-701.25 379.613,-698.05 385.513,-706.85 389.713,-701.25"/><text text-anchor="start" x="385.153" y="-715.205" font-family="Open Sans" font-weight="bold" font-size="10.00" fill="#000000"> 1 </text></g><!-- process_block_33 --><g id="node28" class="node"><title>process_block_33</title><polygon fill="url(#g-process1bz93vp86vz9w3mx869a4i)" stroke="#3f51b5" points="461.5,-697.966 393.5,-697.966 393.5,-661.966 461.5,-661.966 461.5,-697.966"/><text text-anchor="start" x="400.5" y="-677.466" font-family="Open Sans" font-size="10.00" fill="white">cor = 1.000</text></g><!-- switch_block_31&#45;&gt;process_block_33 --><g id="edge31" class="edge"><title>switch_block_31->process_block_33</title><path fill="none" stroke="#000000" d="M427.5,-715.684C427.5,-713.308 427.5,-710.833 427.5,-708.341"/><polygon fill="#000000" stroke="#000000" points="431,-708.229 427.5,-698.229 424,-708.229 431,-708.229"/><text text-anchor="start" x="415.5" y="-701.458" font-family="Open Sans" font-weight="bold" font-size="10.00" fill="#000000"> 2 </text></g><!-- process_block_34 --><g id="node29" class="node"><title>process_block_34</title><polygon fill="url(#g-process1bz93vp86vz9w3mx869a4i)" stroke="#3f51b5" points="540.5,-697.966 472.5,-697.966 472.5,-661.966 540.5,-661.966 540.5,-697.966"/><text text-anchor="start" x="479.5" y="-677.466" font-family="Open Sans" font-size="10.00" fill="white">cor = 2.000</text></g><!-- switch_block_31&#45;&gt;process_block_34 --><g id="edge32" class="edge"><title>switch_block_31->process_block_34</title><path fill="none" stroke="#000000" d="M440.901,-724.805C449.307,-719.059 460.568,-711.362 471.384,-703.969"/><polygon fill="#000000" stroke="#000000" points="473.62,-706.68 479.9,-698.147 469.67,-700.901 473.62,-706.68"/><text text-anchor="start" x="448.71" y="-704.265" font-family="Open Sans" font-weight="bold" font-size="10.00" fill="#000000"> 3 </text></g><!-- module_block_35 --><g id="node30" class="node"><title>module_block_35</title><polygon fill="url(#g-module1bz93vp86vz9w3mx869a4i)" stroke="#009688" points="396.5,-566.974 396.5,-603.974 398.5,-603.974 398.5,-566.974 396.5,-566.974"/><polygon fill="url(#g-module1bz93vp86vz9w3mx869a4i)" stroke="#009688" points="398.5,-566.974 398.5,-603.974 491.5,-603.974 491.5,-566.974 398.5,-566.974"/><text text-anchor="start" x="411.5" y="-582.974" font-family="Open Sans" font-size="10.00" fill="white">prompt motor</text><polygon fill="url(#g-module1bz93vp86vz9w3mx869a4i)" stroke="#009688" points="491.5,-566.974 491.5,-603.974 494.5,-603.974 494.5,-566.974 491.5,-566.974"/></g><!-- process_block_32&#45;&gt;module_block_35 --><g id="edge33" class="edge"><title>process_block_32->module_block_35</title><path fill="none" stroke="#000000" d="M372.853,-661.843C386.373,-647.723 405.33,-627.926 420.488,-612.095"/><polygon fill="#000000" stroke="#000000" points="423.196,-614.328 427.584,-604.684 418.14,-609.486 423.196,-614.328"/></g><!-- process_block_33&#45;&gt;module_block_35 --><g id="edge34" class="edge"><title>process_block_33->module_block_35</title><path fill="none" stroke="#000000" d="M430.971,-661.843C433.527,-648.493 437.056,-630.069 439.995,-614.719"/><polygon fill="#000000" stroke="#000000" points="443.473,-615.164 441.917,-604.684 436.598,-613.847 443.473,-615.164"/></g><!-- process_block_34&#45;&gt;module_block_35 --><g id="edge35" class="edge"><title>process_block_34->module_block_35</title><path fill="none" stroke="#000000" d="M494.739,-661.843C485.825,-648.108 473.425,-629.002 463.299,-613.399"/><polygon fill="#000000" stroke="#000000" points="466.023,-611.167 457.643,-604.684 460.151,-614.978 466.023,-611.167"/></g><!-- module_block_35&#45;&gt;terminator_block_8 --><g id="edge36" class="edge"><title>module_block_35->terminator_block_8</title><path fill="none" stroke="#000000" stroke-dasharray="1,5" d="M494.5,-585.974C530.617,-585.974 566.734,-585.974 602.852,-585.974"/></g><!-- process_block_36 --><g id="node31" class="node"><title>process_block_36</title><polygon fill="url(#g-process1bz93vp86vz9w3mx869a4i)" stroke="#3f51b5" points="477.5,-528.983 413.5,-528.983 413.5,-492.983 477.5,-492.983 477.5,-528.983"/><text text-anchor="start" x="420.5" y="-508.483" font-family="Open Sans" font-size="10.00" fill="white">leia motor</text></g><!-- module_block_35&#45;&gt;process_block_36 --><g id="edge37" class="edge"><title>module_block_35->process_block_36</title><path fill="none" stroke="#000000" d="M445.5,-567.437C445.5,-558.928 445.5,-548.652 445.5,-539.212"/><polygon fill="#000000" stroke="#000000" points="449,-539.048 445.5,-529.048 442,-539.048 449,-539.048"/></g><!-- switch_block_37 --><g id="node32" class="node"><title>switch_block_37</title><polygon fill="url(#g-decision1bz93vp86vz9w3mx869a4i)" stroke="#d1461b" points="445.5,-474.983 408.075,-456.983 445.5,-438.983 482.925,-456.983 445.5,-474.983"/><text text-anchor="start" x="431" y="-454.483" font-family="Open Sans" font-size="10.00" fill="white">motor</text></g><!-- process_block_36&#45;&gt;switch_block_37 --><g id="edge38" class="edge"><title>process_block_36->switch_block_37</title><path fill="none" stroke="#000000" d="M445.5,-492.701C445.5,-490.326 445.5,-487.85 445.5,-485.358"/><polygon fill="#000000" stroke="#000000" points="449,-485.246 445.5,-475.246 442,-485.246 449,-485.246"/></g><!-- process_block_38 --><g id="node33" class="node"><title>process_block_38</title><polygon fill="url(#g-process1bz93vp86vz9w3mx869a4i)" stroke="#3f51b5" points="429,-420.983 368,-420.983 368,-384.983 429,-384.983 429,-420.983"/><text text-anchor="start" x="375" y="-400.483" font-family="Open Sans" font-size="10.00" fill="white">motor = 0</text></g><!-- switch_block_37&#45;&gt;process_block_38 --><g id="edge39" class="edge"><title>switch_block_37->process_block_38</title><path fill="none" stroke="#000000" d="M434.362,-444.186C430.349,-439.575 425.665,-434.193 421.03,-428.869"/><polygon fill="#000000" stroke="#000000" points="423.566,-426.451 414.361,-421.206 418.286,-431.047 423.566,-426.451"/><text text-anchor="start" x="412.288" y="-425.611" font-family="Open Sans" font-weight="bold" font-size="10.00" fill="#000000"> 1 </text></g><!-- process_block_39 --><g id="node34" class="node"><title>process_block_39</title><polygon fill="url(#g-process1bz93vp86vz9w3mx869a4i)" stroke="#3f51b5" points="522.5,-420.983 440.5,-420.983 440.5,-384.983 522.5,-384.983 522.5,-420.983"/><text text-anchor="start" x="447.5" y="-400.483" font-family="Open Sans" font-size="10.00" fill="white">motor = 5.000</text></g><!-- switch_block_37&#45;&gt;process_block_39 --><g id="edge40" class="edge"><title>switch_block_37->process_block_39</title><path fill="none" stroke="#000000" d="M454.771,-443.076C457.462,-439.039 460.497,-434.487 463.531,-429.936"/><polygon fill="#000000" stroke="#000000" points="466.638,-431.586 469.273,-421.324 460.814,-427.703 466.638,-431.586"/><text text-anchor="start" x="450.11" y="-425.068" font-family="Open Sans" font-weight="bold" font-size="10.00" fill="#000000"> 2 </text></g><!-- module_block_40 --><g id="node35" class="node"><title>module_block_40</title><polygon fill="url(#g-module1bz93vp86vz9w3mx869a4i)" stroke="#009688" points="395.5,-289.991 395.5,-326.991 397.5,-326.991 397.5,-289.991 395.5,-289.991"/><polygon fill="url(#g-module1bz93vp86vz9w3mx869a4i)" stroke="#009688" points="397.5,-289.991 397.5,-326.991 481.5,-326.991 481.5,-289.991 397.5,-289.991"/><text text-anchor="start" x="410.5" y="-305.991" font-family="Open Sans" font-size="10.00" fill="white">prompt PNE</text><polygon fill="url(#g-module1bz93vp86vz9w3mx869a4i)" stroke="#009688" points="481.5,-289.991 481.5,-326.991 484.5,-326.991 484.5,-289.991 481.5,-289.991"/></g><!-- process_block_38&#45;&gt;module_block_40 --><g id="edge41" class="edge"><title>process_block_38->module_block_40</title><path fill="none" stroke="#000000" d="M406.405,-384.86C412.284,-371.382 420.42,-352.731 427.154,-337.295"/><polygon fill="#000000" stroke="#000000" points="430.548,-338.267 431.338,-327.702 424.132,-335.468 430.548,-338.267"/></g><!-- process_block_39&#45;&gt;module_block_40 --><g id="edge42" class="edge"><title>process_block_39->module_block_40</title><path fill="none" stroke="#000000" d="M473.402,-384.86C467.322,-371.254 458.886,-352.375 451.951,-336.855"/><polygon fill="#000000" stroke="#000000" points="455.136,-335.404 447.861,-327.702 448.745,-338.259 455.136,-335.404"/></g><!-- module_block_40&#45;&gt;terminator_block_10 --><g id="edge43" class="edge"><title>module_block_40->terminator_block_10</title><path fill="none" stroke="#000000" stroke-dasharray="1,5" d="M484.104,-308.991C523.977,-308.991 563.85,-308.991 603.723,-308.991"/></g><!-- process_block_41 --><g id="node36" class="node"><title>process_block_41</title><polygon fill="url(#g-process1bz93vp86vz9w3mx869a4i)" stroke="#3f51b5" points="426.5,-252 372.5,-252 372.5,-216 426.5,-216 426.5,-252"/><text text-anchor="start" x="380" y="-231.5" font-family="Open Sans" font-size="10.00" fill="white">leia pne</text></g><!-- module_block_40&#45;&gt;process_block_41 --><g id="edge44" class="edge"><title>module_block_40->process_block_41</title><path fill="none" stroke="#000000" d="M429.612,-290.454C424.879,-281.58 419.119,-270.782 413.91,-261.016"/><polygon fill="#000000" stroke="#000000" points="416.93,-259.241 409.136,-252.065 410.754,-262.536 416.93,-259.241"/></g><!-- switch_block_42 --><g id="node37" class="node"><title>switch_block_42</title><polygon fill="url(#g-decision1bz93vp86vz9w3mx869a4i)" stroke="#d1461b" points="321.5,-198 293.389,-180 321.5,-162 349.611,-180 321.5,-198"/><text text-anchor="start" x="312.5" y="-177.5" font-family="Open Sans" font-size="10.00" fill="white">pne</text></g><!-- process_block_41&#45;&gt;switch_block_42 --><g id="edge45" class="edge"><title>process_block_41->switch_block_42</title><path fill="none" stroke="#000000" d="M373.093,-215.718C363.447,-209.04 352.65,-201.565 343.436,-195.186"/><polygon fill="#000000" stroke="#000000" points="345.39,-192.282 335.176,-189.468 341.406,-198.038 345.39,-192.282"/></g><!-- process_block_43 --><g id="node38" class="node"><title>process_block_43</title><polygon fill="url(#g-process1bz93vp86vz9w3mx869a4i)" stroke="#3f51b5" points="540.5,-144 196.5,-144 196.5,-108 540.5,-108 540.5,-144"/><text text-anchor="start" x="203.5" y="-123.5" font-family="Open Sans" font-size="10.00" fill="white">soma = (motor + cor + adc+ model) - (motor + cor + adc + model x0.3</text></g><!-- switch_block_42&#45;&gt;process_block_43 --><g id="edge46" class="edge"><title>switch_block_42->process_block_43</title><path fill="none" stroke="#000000" d="M331.698,-168.283C335.93,-163.421 341.02,-157.572 346.047,-151.798"/><polygon fill="#000000" stroke="#000000" points="348.849,-153.909 352.774,-144.068 343.569,-149.313 348.849,-153.909"/><text text-anchor="start" x="330.045" y="-149.395" font-family="Open Sans" font-weight="bold" font-size="10.00" fill="#000000"> 1 </text></g><!-- process_block_44 --><g id="node39" class="node"><title>process_block_44</title><polygon fill="url(#g-process1bz93vp86vz9w3mx869a4i)" stroke="#3f51b5" points="185,-144 1.42109e-14,-144 1.42109e-14,-108 185,-108 185,-144"/><text text-anchor="start" x="7" y="-123.5" font-family="Open Sans" font-size="10.00" fill="white">soma = (motor + cor + adc + model)</text></g><!-- switch_block_42&#45;&gt;process_block_44 --><g id="edge47" class="edge"><title>switch_block_42->process_block_44</title><path fill="none" stroke="#000000" d="M300.774,-175.113C273.291,-168.632 223.1,-156.797 178.876,-146.368"/><polygon fill="#000000" stroke="#000000" points="179.493,-142.918 168.957,-144.029 177.887,-149.731 179.493,-142.918"/><text text-anchor="start" x="222.844" y="-163.566" font-family="Open Sans" font-weight="bold" font-size="10.00" fill="#000000"> 2 </text></g><!-- process_block_45 --><g id="node40" class="node"><title>process_block_45</title><polygon fill="url(#g-process1bz93vp86vz9w3mx869a4i)" stroke="#3f51b5" points="442,-90 295,-90 295,-54 442,-54 442,-90"/><text text-anchor="start" x="302" y="-69.5" font-family="Open Sans" font-size="10.00" fill="white">" O valor do carro é "+soma</text></g><!-- process_block_43&#45;&gt;process_block_45 --><g id="edge48" class="edge"><title>process_block_43->process_block_45</title><path fill="none" stroke="#000000" d="M368.5,-107.718C368.5,-105.343 368.5,-102.867 368.5,-100.375"/><polygon fill="#000000" stroke="#000000" points="372,-100.263 368.5,-90.2631 365,-100.263 372,-100.263"/></g><!-- process_block_44&#45;&gt;process_block_45 --><g id="edge49" class="edge"><title>process_block_44->process_block_45</title><path fill="none" stroke="#000000" d="M184.788,-107.944C217.028,-101.636 253.021,-94.5936 284.546,-88.4258"/><polygon fill="#000000" stroke="#000000" points="285.472,-91.8111 294.614,-86.456 284.128,-84.9414 285.472,-91.8111"/></g><!-- terminator_block_47 --><g id="node42" class="node"><title>terminator_block_47</title><ellipse fill="url(#g-terminator1bz93vp86vz9w3mx869a4i)" stroke="#C32F06" cx="462.5" cy="-18" rx="27" ry="18"/><text text-anchor="start" x="455" y="-15.5" font-family="Open Sans" font-size="10.00" fill="white">fim</text></g><!-- process_block_45&#45;&gt;terminator_block_47 --><g id="edge51" class="edge"><title>process_block_45->terminator_block_47</title><path fill="none" stroke="#000000" d="M400.062,-53.8686C410.705,-47.7545 422.536,-40.9579 433.013,-34.9395"/><polygon fill="#000000" stroke="#000000" points="434.879,-37.9038 441.807,-29.8876 431.392,-31.834 434.879,-37.9038"/></g><!-- process_block_46&#45;&gt;terminator_block_47 --><g id="edge52" class="edge"><title>process_block_46->terminator_block_47</title><path fill="none" stroke="#000000" d="M556.773,-1389.81C557.069,-1368.33 557.5,-1331.66 557.5,-1300.16 557.5,-1300.16 557.5,-1300.16 557.5,-126 557.5,-85.8912 520.104,-53.5982 492.237,-35.1022"/><polygon fill="#000000" stroke="#000000" points="493.898,-32.0105 483.584,-29.5894 490.137,-37.9143 493.898,-32.0105"/></g><!-- comment_block_48 --><g id="node43" class="node"><title>comment_block_48</title><polygon fill="url(#g-comment1bz93vp86vz9w3mx869a4i)" stroke="#ffab40" points="534.5,-809.966 418.5,-809.966 418.5,-769.966 540.5,-769.966 540.5,-803.966 534.5,-809.966"/><polyline fill="white" stroke="#ffab40" points="534.5,-809.966 534.5,-803.966 " stroke-width="0"/><polyline fill="white" stroke="#ffab40" points="540.5,-803.966 534.5,-803.966 " stroke-width="0"/><text text-anchor="start" x="422.5" y="-798.966" font-family="Open Sans" font-size="8.00" fill="black">  Cada escolha caso me permite</text><text text-anchor="start" x="429.5" y="-790.966" font-family="Open Sans" font-size="8.00" fill="black">  atribuir um valor a variável</text><text text-anchor="start" x="428.5" y="-782.966" font-family="Open Sans" font-size="8.00" fill="black">  </text><text text-anchor="start" x="432.5" y="-782.966" font-family="Open Sans" font-style="italic" font-size="8.00" fill="black">cor</text><text text-anchor="start" x="443.5" y="-782.966" font-family="Open Sans" font-size="8.00" fill="black"> , conforme a atribuição</text><text text-anchor="start" x="429.5" y="-774.966" font-family="Open Sans" font-size="8.00" fill="black">  do usuário no prompt cor</text></g><!-- comment_block_48&#45;&gt;switch_block_31 --><g id="edge53" class="edge"><title>comment_block_48->switch_block_31</title><path fill="none" stroke="#000000" stroke-dasharray="5,2" d="M460.727,-769.748C453.047,-761.477 444.453,-752.222 437.929,-745.197"/></g><!-- comment_block_49 --><g id="node44" class="node"><title>comment_block_49</title><polygon fill="url(#g-comment1bz93vp86vz9w3mx869a4i)" stroke="#ffab40" points="448.5,-198 360.5,-198 360.5,-162 454.5,-162 454.5,-192 448.5,-198"/><polyline fill="white" stroke="#ffab40" points="448.5,-198 448.5,-192 " stroke-width="0"/><polyline fill="white" stroke="#ffab40" points="454.5,-192 448.5,-192 " stroke-width="0"/><text text-anchor="start" x="364.5" y="-176.5" font-family="Open Sans" font-size="8.00" fill="black">  Calculo com desconto</text></g><!-- comment_block_49&#45;&gt;process_block_43 --><g id="edge54" class="edge"><title>comment_block_49->process_block_43</title><path fill="none" stroke="#000000" stroke-dasharray="5,2" d="M394.296,-161.718C390.23,-156.088 385.755,-149.892 381.69,-144.263"/></g><!-- comment_block_50 --><g id="node45" class="node"><title>comment_block_50</title><polygon fill="url(#g-comment1bz93vp86vz9w3mx869a4i)" stroke="#ffab40" points="133,-198 46,-198 46,-162 139,-162 139,-192 133,-198"/><polyline fill="white" stroke="#ffab40" points="133,-198 133,-192 " stroke-width="0"/><polyline fill="white" stroke="#ffab40" points="139,-192 133,-192 " stroke-width="0"/><text text-anchor="start" x="50" y="-176.5" font-family="Open Sans" font-size="8.00" fill="black">  Calculo sem desconto</text></g><!-- comment_block_50&#45;&gt;process_block_44 --><g id="edge55" class="edge"><title>comment_block_50->process_block_44</title><path fill="none" stroke="#000000" stroke-dasharray="5,2" d="M92.5,-161.718C92.5,-156.088 92.5,-149.892 92.5,-144.263"/></g></g></svg>