<?xml version="1.0" encoding="UTF-8" standalone="no"?><!DOCTYPE svg PUBLIC "-//W3C//DTD SVG 1.1//EN" "http://www.w3.org/Graphics/SVG/1.1/DTD/svg11.dtd"><!-- Generated by graphviz version 2.39.20160930.0541 (20160930.0541) --><!-- Title: FlowChart Pages: 1 --><svg width="389pt" height="797pt" viewBox="0.00 0.00 389.43 797" xmlns="http://www.w3.org/2000/svg" xmlns:xlink="http://www.w3.org/1999/xlink"><defs><radialGradient id="g-terminatornz631759dbgqz0zdm42t9" cx="0.5" cy="0.5" fx="0.9" fy="0.9" r="1" x1="0%" x2="0%" y1="100%" y2="0%" spreadMethod="pad"><stop offset="0%" stop-color="#C32F06" stop-opacity="1"/><stop offset="100%" stop-color="#C32F06" stop-opacity="1"/></radialGradient><radialGradient id="g-decisionnz631759dbgqz0zdm42t9" cx="0.5" cy="0.5" fx="0.9" fy="0.9" r="1" x1="0%" x2="0%" y1="100%" y2="0%" spreadMethod="pad"><stop offset="0%" stop-color="#d1461b" stop-opacity="1"/><stop offset="100%" stop-color="#d1461b" stop-opacity="1"/></radialGradient><radialGradient id="g-processnz631759dbgqz0zdm42t9" cx="0.5" cy="0.5" fx="0.9" fy="0.9" r="1" x1="0%" x2="0%" y1="100%" y2="0%" spreadMethod="pad"><stop offset="0%" stop-color="#3f51b5" stop-opacity="1"/><stop offset="100%" stop-color="#3f51b5" stop-opacity="1"/></radialGradient><radialGradient id="g-defaultnz631759dbgqz0zdm42t9" cx="0.5" cy="0.5" fx="0.9" fy="0.9" r="1" x1="0%" x2="0%" y1="100%" y2="0%" spreadMethod="pad"><stop offset="0%" stop-color="#005100" stop-opacity="1"/><stop offset="100%" stop-color="#005100" stop-opacity="1"/></radialGradient><radialGradient id="g-modulenz631759dbgqz0zdm42t9" cx="0.5" cy="0.5" fx="0.9" fy="0.9" r="1" x1="0%" x2="0%" y1="100%" y2="0%" spreadMethod="pad"><stop offset="0%" stop-color="#009688" stop-opacity="1"/><stop offset="100%" stop-color="#009688" stop-opacity="1"/></radialGradient><radialGradient id="g-dataionz631759dbgqz0zdm42t9" cx="0.5" cy="0.5" fx="0.9" fy="0.9" r="1" x1="0%" x2="0%" y1="100%" y2="0%" spreadMethod="pad"><stop offset="0%" stop-color="#607d8b" stop-opacity="1"/><stop offset="100%" stop-color="#607d8b" stop-opacity="1"/></radialGradient><radialGradient id="g-preparationnz631759dbgqz0zdm42t9" cx="0.5" cy="0.5" fx="0.9" fy="0.9" r="1" x1="0%" x2="0%" y1="100%" y2="0%" spreadMethod="pad"><stop offset="0%" stop-color="#607d8b" stop-opacity="1"/><stop offset="100%" stop-color="#607d8b" stop-opacity="1"/></radialGradient><radialGradient id="g-commentnz631759dbgqz0zdm42t9" cx="0.5" cy="0.5" fx="0.9" fy="0.9" r="1" x1="0%" x2="0%" y1="100%" y2="0%" spreadMethod="pad"><stop offset="0%" stop-color="#ffab40" stop-opacity="1"/><stop offset="100%" stop-color="#ffab40" stop-opacity="1"/></radialGradient><radialGradient id="g-manualnz631759dbgqz0zdm42t9" cx="0.5" cy="0.5" fx="0.9" fy="0.9" r="1" x1="0%" x2="0%" y1="100%" y2="0%" spreadMethod="pad"><stop offset="0%" stop-color="#673ab7" stop-opacity="1"/><stop offset="100%" stop-color="#673ab7" stop-opacity="1"/></radialGradient></defs><g id="page0,1_graph0" class="graph" transform="scale(0.564505 0.564505) rotate(0) translate(4 1399)"><title>FlowChart</title><!-- terminator_block_1 --><g id="node1" class="node"><title>terminator_block_1</title><ellipse fill="url(#g-terminatornz631759dbgqz0zdm42t9)" stroke="#C32F06" cx="487.5" cy="-1377" rx="27" ry="18"/><text text-anchor="start" x="474.5" y="-1374.5" font-family="Open Sans" font-size="10.00" fill="white">Inicio</text></g><!-- process_block_2 --><g id="node2" class="node"><title>process_block_2</title><polygon fill="url(#g-processnz631759dbgqz0zdm42t9)" stroke="#3f51b5" points="623.5,-1341 351.5,-1341 351.5,-1305 623.5,-1305 623.5,-1341"/><text text-anchor="start" x="358.5" y="-1326" font-family="Open Sans" font-size="10.00" fill="white">"Vamos calcular o valor total da compra de um carro"</text><text text-anchor="start" x="381" y="-1315" font-family="Open Sans" font-size="10.00" fill="white">"Informe quantos pontos possui na carteira"</text></g><!-- terminator_block_1&#45;&gt;process_block_2 --><g id="edge1" class="edge"><title>terminator_block_1->process_block_2</title><path fill="none" stroke="#000000" d="M487.5,-1358.72C487.5,-1356.34 487.5,-1353.87 487.5,-1351.38"/><polygon fill="#000000" stroke="#000000" points="491,-1351.26 487.5,-1341.26 484,-1351.26 491,-1351.26"/></g><!-- process_block_3 --><g id="node3" class="node"><title>process_block_3</title><polygon fill="url(#g-processnz631759dbgqz0zdm42t9)" stroke="#3f51b5" points="516,-1287 459,-1287 459,-1251 516,-1251 516,-1287"/><text text-anchor="start" x="466" y="-1266.5" font-family="Open Sans" font-size="10.00" fill="white">leia pont</text></g><!-- process_block_2&#45;&gt;process_block_3 --><g id="edge2" class="edge"><title>process_block_2->process_block_3</title><path fill="none" stroke="#000000" d="M487.5,-1304.72C487.5,-1302.34 487.5,-1299.87 487.5,-1297.38"/><polygon fill="#000000" stroke="#000000" points="491,-1297.26 487.5,-1287.26 484,-1297.26 491,-1297.26"/></g><!-- ifs_block_4 --><g id="node4" class="node"><title>ifs_block_4</title><polygon fill="url(#g-decisionnz631759dbgqz0zdm42t9)" stroke="#d1461b" points="487.5,-1233 439.43,-1215 487.5,-1197 535.57,-1215 487.5,-1233"/><text text-anchor="start" x="466.5" y="-1212.5" font-family="Open Sans" font-size="10.00" fill="white">ponT &lt; 7</text></g><!-- process_block_3&#45;&gt;ifs_block_4 --><g id="edge3" class="edge"><title>process_block_3->ifs_block_4</title><path fill="none" stroke="#000000" d="M487.5,-1250.72C487.5,-1248.34 487.5,-1245.87 487.5,-1243.38"/><polygon fill="#000000" stroke="#000000" points="491,-1243.26 487.5,-1233.26 484,-1243.26 491,-1243.26"/></g><!-- module_block_5 --><g id="node5" class="node"><title>module_block_5</title><polygon fill="url(#g-modulenz631759dbgqz0zdm42t9)" stroke="#009688" points="389.5,-1141.5 389.5,-1178.5 391.5,-1178.5 391.5,-1141.5 389.5,-1141.5"/><polygon fill="url(#g-modulenz631759dbgqz0zdm42t9)" stroke="#009688" points="391.5,-1141.5 391.5,-1178.5 491.5,-1178.5 491.5,-1141.5 391.5,-1141.5"/><text text-anchor="start" x="404.5" y="-1157.5" font-family="Open Sans" font-size="10.00" fill="white">prompt modelo</text><polygon fill="url(#g-modulenz631759dbgqz0zdm42t9)" stroke="#009688" points="491.5,-1141.5 491.5,-1178.5 494.5,-1178.5 494.5,-1141.5 491.5,-1141.5"/></g><!-- ifs_block_4&#45;&gt;module_block_5 --><g id="edge4" class="edge"><title>ifs_block_4->module_block_5</title><path fill="none" stroke="#000000" d="M475.892,-1201.25C472.189,-1196.86 467.959,-1191.85 463.762,-1186.88"/><polygon fill="#000000" stroke="#000000" points="466.399,-1184.57 457.274,-1179.19 461.05,-1189.09 466.399,-1184.57"/><text text-anchor="start" x="405.516" y="-1183.14" font-family="Open Sans" font-weight="bold" font-size="10.00" fill="#000000"> Verdadeiro </text></g><!-- process_block_36 --><g id="node36" class="node"><title>process_block_36</title><polygon fill="url(#g-processnz631759dbgqz0zdm42t9)" stroke="#3f51b5" points="673,-1124 440,-1124 440,-1088 673,-1088 673,-1124"/><text text-anchor="start" x="447" y="-1103.5" font-family="Open Sans" font-size="10.00" fill="white">"Você não esta habilitado a compra do carro"</text></g><!-- ifs_block_4&#45;&gt;process_block_36 --><g id="edge45" class="edge"><title>ifs_block_4->process_block_36</title><path fill="none" stroke="#000000" d="M496.806,-1200.3C507.749,-1183.01 526.129,-1153.98 539.609,-1132.68"/><polygon fill="#000000" stroke="#000000" points="542.659,-1134.41 545.05,-1124.09 536.744,-1130.66 542.659,-1134.41"/><text text-anchor="start" x="520.859" y="-1166.3" font-family="Open Sans" font-weight="bold" font-size="10.00" fill="#000000"> Falso </text></g><!-- process_block_6 --><g id="node6" class="node"><title>process_block_6</title><polygon fill="url(#g-processnz631759dbgqz0zdm42t9)" stroke="#3f51b5" points="429,-1124 364,-1124 364,-1088 429,-1088 429,-1124"/><text text-anchor="start" x="371" y="-1103.5" font-family="Open Sans" font-size="10.00" fill="white">leia model</text></g><!-- module_block_5&#45;&gt;process_block_6 --><g id="edge5" class="edge"><title>module_block_5->process_block_6</title><path fill="none" stroke="#000000" d="M426.014,-1141.74C423.455,-1138.65 420.763,-1135.38 418.087,-1132.14"/><polygon fill="#000000" stroke="#000000" points="420.625,-1129.72 411.559,-1124.24 415.227,-1134.18 420.625,-1129.72"/></g><!-- switch_block_7 --><g id="node7" class="node"><title>switch_block_7</title><polygon fill="url(#g-decisionnz631759dbgqz0zdm42t9)" stroke="#d1461b" points="396.5,-1070 358.409,-1052 396.5,-1034 434.591,-1052 396.5,-1070"/><text text-anchor="start" x="381.5" y="-1049.5" font-family="Open Sans" font-size="10.00" fill="white">model</text></g><!-- process_block_6&#45;&gt;switch_block_7 --><g id="edge6" class="edge"><title>process_block_6->switch_block_7</title><path fill="none" stroke="#000000" d="M396.5,-1087.72C396.5,-1085.34 396.5,-1082.87 396.5,-1080.38"/><polygon fill="#000000" stroke="#000000" points="400,-1080.26 396.5,-1070.26 393,-1080.26 400,-1080.26"/></g><!-- process_block_8 --><g id="node8" class="node"><title>process_block_8</title><polygon fill="url(#g-processnz631759dbgqz0zdm42t9)" stroke="#3f51b5" points="241,-1016 152,-1016 152,-980 241,-980 241,-1016"/><text text-anchor="start" x="159" y="-995.5" font-family="Open Sans" font-size="10.00" fill="white">model = 60.000</text></g><!-- switch_block_7&#45;&gt;process_block_8 --><g id="edge7" class="edge"><title>switch_block_7->process_block_8</title><path fill="none" stroke="#000000" d="M369.71,-1046.5C341.583,-1040.53 295.893,-1030.27 250.989,-1017.25"/><polygon fill="#000000" stroke="#000000" points="251.707,-1013.81 241.125,-1014.34 249.726,-1020.53 251.707,-1013.81"/><text text-anchor="start" x="293.373" y="-1035.77" font-family="Open Sans" font-weight="bold" font-size="10.00" fill="#000000"> 1 </text></g><!-- process_block_9 --><g id="node9" class="node"><title>process_block_9</title><polygon fill="url(#g-processnz631759dbgqz0zdm42t9)" stroke="#3f51b5" points="341,-1016 252,-1016 252,-980 341,-980 341,-1016"/><text text-anchor="start" x="259" y="-995.5" font-family="Open Sans" font-size="10.00" fill="white">model = 40.000</text></g><!-- switch_block_7&#45;&gt;process_block_9 --><g id="edge8" class="edge"><title>switch_block_7->process_block_9</title><path fill="none" stroke="#000000" d="M378.622,-1042.35C367.562,-1036.37 352.865,-1028.44 338.964,-1020.93"/><polygon fill="#000000" stroke="#000000" points="340.452,-1017.76 329.99,-1016.08 337.126,-1023.92 340.452,-1017.76"/><text text-anchor="start" x="342.054" y="-1033.08" font-family="Open Sans" font-weight="bold" font-size="10.00" fill="#000000"> 2 </text></g><!-- process_block_10 --><g id="node10" class="node"><title>process_block_10</title><polygon fill="url(#g-processnz631759dbgqz0zdm42t9)" stroke="#3f51b5" points="441,-1016 352,-1016 352,-980 441,-980 441,-1016"/><text text-anchor="start" x="359" y="-995.5" font-family="Open Sans" font-size="10.00" fill="white">model = 30.000</text></g><!-- switch_block_7&#45;&gt;process_block_10 --><g id="edge9" class="edge"><title>switch_block_7->process_block_10</title><path fill="none" stroke="#000000" d="M396.5,-1033.72C396.5,-1031.34 396.5,-1028.87 396.5,-1026.38"/><polygon fill="#000000" stroke="#000000" points="400,-1026.26 396.5,-1016.26 393,-1026.26 400,-1026.26"/><text text-anchor="start" x="384.5" y="-1019.49" font-family="Open Sans" font-weight="bold" font-size="10.00" fill="#000000"> 3 </text></g><!-- process_block_11 --><g id="node11" class="node"><title>process_block_11</title><polygon fill="url(#g-processnz631759dbgqz0zdm42t9)" stroke="#3f51b5" points="541,-1016 452,-1016 452,-980 541,-980 541,-1016"/><text text-anchor="start" x="459" y="-995.5" font-family="Open Sans" font-size="10.00" fill="white">model = 20.000</text></g><!-- switch_block_7&#45;&gt;process_block_11 --><g id="edge10" class="edge"><title>switch_block_7->process_block_11</title><path fill="none" stroke="#000000" d="M414.378,-1042.35C425.438,-1036.37 440.135,-1028.44 454.036,-1020.93"/><polygon fill="#000000" stroke="#000000" points="455.874,-1023.92 463.01,-1016.08 452.548,-1017.76 455.874,-1023.92"/><text text-anchor="start" x="426.946" y="-1022.08" font-family="Open Sans" font-weight="bold" font-size="10.00" fill="#000000"> 4 </text></g><!-- module_block_12 --><g id="node12" class="node"><title>module_block_12</title><polygon fill="url(#g-modulenz631759dbgqz0zdm42t9)" stroke="#009688" points="259.5,-924.5 259.5,-961.5 261.5,-961.5 261.5,-924.5 259.5,-924.5"/><polygon fill="url(#g-modulenz631759dbgqz0zdm42t9)" stroke="#009688" points="261.5,-924.5 261.5,-961.5 374.5,-961.5 374.5,-924.5 261.5,-924.5"/><text text-anchor="start" x="274.5" y="-940.5" font-family="Open Sans" font-size="10.00" fill="white">prompt adicionais</text><polygon fill="url(#g-modulenz631759dbgqz0zdm42t9)" stroke="#009688" points="374.5,-924.5 374.5,-961.5 377.5,-961.5 377.5,-924.5 374.5,-924.5"/></g><!-- process_block_8&#45;&gt;module_block_12 --><g id="edge11" class="edge"><title>process_block_8->module_block_12</title><path fill="none" stroke="#000000" d="M237.124,-979.852C246.889,-975.49 257.441,-970.776 267.608,-966.235"/><polygon fill="#000000" stroke="#000000" points="269.1,-969.402 276.802,-962.127 266.244,-963.01 269.1,-969.402"/></g><!-- process_block_9&#45;&gt;module_block_12 --><g id="edge12" class="edge"><title>process_block_9->module_block_12</title><path fill="none" stroke="#000000" d="M303.826,-979.852C304.904,-977.182 306.035,-974.379 307.171,-971.565"/><polygon fill="#000000" stroke="#000000" points="310.483,-972.71 310.981,-962.127 303.992,-970.09 310.483,-972.71"/></g><!-- process_block_10&#45;&gt;module_block_12 --><g id="edge13" class="edge"><title>process_block_10->module_block_12</title><path fill="none" stroke="#000000" d="M370.527,-979.852C365.048,-976.024 359.182,-971.925 353.435,-967.91"/><polygon fill="#000000" stroke="#000000" points="355.361,-964.986 345.159,-962.127 351.352,-970.724 355.361,-964.986"/></g><!-- process_block_11&#45;&gt;module_block_12 --><g id="edge14" class="edge"><title>process_block_11->module_block_12</title><path fill="none" stroke="#000000" d="M451.846,-981.755C450.043,-981.153 448.256,-980.566 446.5,-980 427.489,-973.875 406.724,-967.726 387.557,-962.266"/><polygon fill="#000000" stroke="#000000" points="388.272,-958.831 377.697,-959.477 386.367,-965.567 388.272,-958.831"/></g><!-- process_block_13 --><g id="node13" class="node"><title>process_block_13</title><polygon fill="url(#g-processnz631759dbgqz0zdm42t9)" stroke="#3f51b5" points="345.5,-907 291.5,-907 291.5,-871 345.5,-871 345.5,-907"/><text text-anchor="start" x="299.5" y="-886.5" font-family="Open Sans" font-size="10.00" fill="white">leia adc</text></g><!-- module_block_12&#45;&gt;process_block_13 --><g id="edge15" class="edge"><title>module_block_12->process_block_13</title><path fill="none" stroke="#000000" d="M318.5,-924.744C318.5,-922.354 318.5,-919.867 318.5,-917.367"/><polygon fill="#000000" stroke="#000000" points="322,-917.238 318.5,-907.238 315,-917.238 322,-917.238"/></g><!-- switch_block_14 --><g id="node14" class="node"><title>switch_block_14</title><polygon fill="url(#g-decisionnz631759dbgqz0zdm42t9)" stroke="#d1461b" points="318.5,-853 291.055,-835 318.5,-817 345.945,-835 318.5,-853"/><text text-anchor="start" x="310" y="-832.5" font-family="Open Sans" font-size="10.00" fill="white">adc</text></g><!-- process_block_13&#45;&gt;switch_block_14 --><g id="edge16" class="edge"><title>process_block_13->switch_block_14</title><path fill="none" stroke="#000000" d="M318.5,-870.718C318.5,-868.343 318.5,-865.867 318.5,-863.375"/><polygon fill="#000000" stroke="#000000" points="322,-863.263 318.5,-853.263 315,-863.263 322,-863.263"/></g><!-- process_block_15 --><g id="node15" class="node"><title>process_block_15</title><polygon fill="url(#g-processnz631759dbgqz0zdm42t9)" stroke="#3f51b5" points="232.5,-799 162.5,-799 162.5,-763 232.5,-763 232.5,-799"/><text text-anchor="start" x="169.5" y="-778.5" font-family="Open Sans" font-size="10.00" fill="white">adc = 3.000</text></g><!-- switch_block_14&#45;&gt;process_block_15 --><g id="edge17" class="edge"><title>switch_block_14->process_block_15</title><path fill="none" stroke="#000000" d="M302.046,-827.714C287.592,-821.308 265.762,-811.619 242.264,-801.125"/><polygon fill="#000000" stroke="#000000" points="243.389,-797.795 232.831,-796.91 240.533,-804.185 243.389,-797.795"/><text text-anchor="start" x="255.191" y="-816.237" font-family="Open Sans" font-weight="bold" font-size="10.00" fill="#000000"> 1 </text></g><!-- process_block_16 --><g id="node16" class="node"><title>process_block_16</title><polygon fill="url(#g-processnz631759dbgqz0zdm42t9)" stroke="#3f51b5" points="313.5,-799 243.5,-799 243.5,-763 313.5,-763 313.5,-799"/><text text-anchor="start" x="250.5" y="-778.5" font-family="Open Sans" font-size="10.00" fill="white">adc = 2.000</text></g><!-- switch_block_14&#45;&gt;process_block_16 --><g id="edge18" class="edge"><title>switch_block_14->process_block_16</title><path fill="none" stroke="#000000" d="M309.423,-822.747C306.035,-818.172 302.043,-812.783 298.074,-807.425"/><polygon fill="#000000" stroke="#000000" points="300.709,-805.103 291.945,-799.15 295.084,-809.269 300.709,-805.103"/><text text-anchor="start" x="288.675" y="-803.937" font-family="Open Sans" font-weight="bold" font-size="10.00" fill="#000000"> 2 </text></g><!-- process_block_17 --><g id="node17" class="node"><title>process_block_17</title><polygon fill="url(#g-processnz631759dbgqz0zdm42t9)" stroke="#3f51b5" points="394.5,-799 324.5,-799 324.5,-763 394.5,-763 394.5,-799"/><text text-anchor="start" x="331.5" y="-778.5" font-family="Open Sans" font-size="10.00" fill="white">adc = 1.000</text></g><!-- switch_block_14&#45;&gt;process_block_17 --><g id="edge19" class="edge"><title>switch_block_14->process_block_17</title><path fill="none" stroke="#000000" d="M327.804,-822.747C331.277,-818.172 335.368,-812.783 339.437,-807.425"/><polygon fill="#000000" stroke="#000000" points="342.46,-809.231 345.719,-799.15 336.885,-804.998 342.46,-809.231"/><text text-anchor="start" x="324.77" y="-803.937" font-family="Open Sans" font-weight="bold" font-size="10.00" fill="#000000"> 3 </text></g><!-- process_block_18 --><g id="node18" class="node"><title>process_block_18</title><polygon fill="url(#g-processnz631759dbgqz0zdm42t9)" stroke="#3f51b5" points="475.5,-799 405.5,-799 405.5,-763 475.5,-763 475.5,-799"/><text text-anchor="start" x="412.5" y="-778.5" font-family="Open Sans" font-size="10.00" fill="white">adc = 4.000</text></g><!-- switch_block_14&#45;&gt;process_block_18 --><g id="edge20" class="edge"><title>switch_block_14->process_block_18</title><path fill="none" stroke="#000000" d="M334.953,-827.717C350.591,-820.796 374.815,-810.074 396.114,-800.646"/><polygon fill="#000000" stroke="#000000" points="397.613,-803.81 405.34,-796.562 394.78,-797.409 397.613,-803.81"/><text text-anchor="start" x="357.99" y="-816.209" font-family="Open Sans" font-weight="bold" font-size="10.00" fill="#000000"> 4 </text></g><!-- module_block_19 --><g id="node19" class="node"><title>module_block_19</title><polygon fill="url(#g-modulenz631759dbgqz0zdm42t9)" stroke="#009688" points="240.5,-707.5 240.5,-744.5 242.5,-744.5 242.5,-707.5 240.5,-707.5"/><polygon fill="url(#g-modulenz631759dbgqz0zdm42t9)" stroke="#009688" points="242.5,-707.5 242.5,-744.5 321.5,-744.5 321.5,-707.5 242.5,-707.5"/><text text-anchor="start" x="255.5" y="-723.5" font-family="Open Sans" font-size="10.00" fill="white">prompt cor</text><polygon fill="url(#g-modulenz631759dbgqz0zdm42t9)" stroke="#009688" points="321.5,-707.5 321.5,-744.5 324.5,-744.5 324.5,-707.5 321.5,-707.5"/></g><!-- process_block_15&#45;&gt;module_block_19 --><g id="edge21" class="edge"><title>process_block_15->module_block_19</title><path fill="none" stroke="#000000" d="M225.804,-762.852C231.913,-758.935 238.464,-754.735 244.866,-750.63"/><polygon fill="#000000" stroke="#000000" points="246.919,-753.471 253.448,-745.127 243.141,-747.578 246.919,-753.471"/></g><!-- process_block_16&#45;&gt;module_block_19 --><g id="edge22" class="edge"><title>process_block_16->module_block_19</title><path fill="none" stroke="#000000" d="M279.832,-762.852C280.015,-760.36 280.206,-757.752 280.399,-755.128"/><polygon fill="#000000" stroke="#000000" points="283.891,-755.357 281.133,-745.127 276.91,-754.844 283.891,-755.357"/></g><!-- process_block_17&#45;&gt;module_block_19 --><g id="edge23" class="edge"><title>process_block_17->module_block_19</title><path fill="none" stroke="#000000" d="M333.86,-762.852C328.452,-759.024 322.661,-754.925 316.987,-750.91"/><polygon fill="#000000" stroke="#000000" points="319.002,-748.048 308.817,-745.127 314.958,-753.761 319.002,-748.048"/></g><!-- process_block_18&#45;&gt;module_block_19 --><g id="edge24" class="edge"><title>process_block_18->module_block_19</title><path fill="none" stroke="#000000" d="M405.267,-765.235C403.324,-764.458 401.393,-763.708 399.5,-763 378.435,-755.118 354.818,-747.522 334.349,-741.32"/><polygon fill="#000000" stroke="#000000" points="335.161,-737.91 324.578,-738.392 333.152,-744.615 335.161,-737.91"/></g><!-- process_block_20 --><g id="node20" class="node"><title>process_block_20</title><polygon fill="url(#g-processnz631759dbgqz0zdm42t9)" stroke="#3f51b5" points="309.5,-688 255.5,-688 255.5,-652 309.5,-652 309.5,-688"/><text text-anchor="start" x="264.5" y="-667.5" font-family="Open Sans" font-size="10.00" fill="white">leia cor</text></g><!-- module_block_19&#45;&gt;process_block_20 --><g id="edge25" class="edge"><title>module_block_19->process_block_20</title><path fill="none" stroke="#000000" d="M282.5,-708C282.5,-704.944 282.5,-701.716 282.5,-698.483"/><polygon fill="#000000" stroke="#000000" points="286,-698.349 282.5,-688.349 279,-698.349 286,-698.349"/></g><!-- switch_block_21 --><g id="node21" class="node"><title>switch_block_21</title><polygon fill="url(#g-decisionnz631759dbgqz0zdm42t9)" stroke="#d1461b" points="316.5,-632 289.5,-614 316.5,-596 343.5,-614 316.5,-632"/><text text-anchor="start" x="309" y="-611.5" font-family="Open Sans" font-size="10.00" fill="white">cor</text></g><!-- process_block_20&#45;&gt;switch_block_21 --><g id="edge26" class="edge"><title>process_block_20->switch_block_21</title><path fill="none" stroke="#000000" d="M293.445,-651.973C296.629,-646.729 300.138,-640.949 303.438,-635.513"/><polygon fill="#000000" stroke="#000000" points="306.502,-637.212 308.7,-626.848 300.518,-633.579 306.502,-637.212"/></g><!-- process_block_22 --><g id="node22" class="node"><title>process_block_22</title><polygon fill="url(#g-processnz631759dbgqz0zdm42t9)" stroke="#3f51b5" points="271.5,-578 217.5,-578 217.5,-542 271.5,-542 271.5,-578"/><text text-anchor="start" x="228" y="-557.5" font-family="Open Sans" font-size="10.00" fill="white">cor = 0</text></g><!-- switch_block_21&#45;&gt;process_block_22 --><g id="edge27" class="edge"><title>switch_block_21->process_block_22</title><path fill="none" stroke="#000000" d="M303.628,-604.346C296.12,-598.715 286.284,-591.338 276.795,-584.221"/><polygon fill="#000000" stroke="#000000" points="278.713,-581.284 268.613,-578.084 274.513,-586.885 278.713,-581.284"/><text text-anchor="start" x="274.153" y="-595.24" font-family="Open Sans" font-weight="bold" font-size="10.00" fill="#000000"> 1 </text></g><!-- process_block_23 --><g id="node23" class="node"><title>process_block_23</title><polygon fill="url(#g-processnz631759dbgqz0zdm42t9)" stroke="#3f51b5" points="350.5,-578 282.5,-578 282.5,-542 350.5,-542 350.5,-578"/><text text-anchor="start" x="289.5" y="-557.5" font-family="Open Sans" font-size="10.00" fill="white">cor = 1.000</text></g><!-- switch_block_21&#45;&gt;process_block_23 --><g id="edge28" class="edge"><title>switch_block_21->process_block_23</title><path fill="none" stroke="#000000" d="M316.5,-595.718C316.5,-593.343 316.5,-590.867 316.5,-588.375"/><polygon fill="#000000" stroke="#000000" points="320,-588.263 316.5,-578.263 313,-588.263 320,-588.263"/><text text-anchor="start" x="304.5" y="-581.492" font-family="Open Sans" font-weight="bold" font-size="10.00" fill="#000000"> 2 </text></g><!-- process_block_24 --><g id="node24" class="node"><title>process_block_24</title><polygon fill="url(#g-processnz631759dbgqz0zdm42t9)" stroke="#3f51b5" points="429.5,-578 361.5,-578 361.5,-542 429.5,-542 429.5,-578"/><text text-anchor="start" x="368.5" y="-557.5" font-family="Open Sans" font-size="10.00" fill="white">cor = 2.000</text></g><!-- switch_block_21&#45;&gt;process_block_24 --><g id="edge29" class="edge"><title>switch_block_21->process_block_24</title><path fill="none" stroke="#000000" d="M329.901,-604.84C338.307,-599.094 349.568,-591.397 360.384,-584.003"/><polygon fill="#000000" stroke="#000000" points="362.62,-586.715 368.9,-578.182 358.67,-580.936 362.62,-586.715"/><text text-anchor="start" x="337.71" y="-584.3" font-family="Open Sans" font-weight="bold" font-size="10.00" fill="#000000"> 3 </text></g><!-- module_block_25 --><g id="node25" class="node"><title>module_block_25</title><polygon fill="url(#g-modulenz631759dbgqz0zdm42t9)" stroke="#009688" points="267.5,-486.5 267.5,-523.5 269.5,-523.5 269.5,-486.5 267.5,-486.5"/><polygon fill="url(#g-modulenz631759dbgqz0zdm42t9)" stroke="#009688" points="269.5,-486.5 269.5,-523.5 362.5,-523.5 362.5,-486.5 269.5,-486.5"/><text text-anchor="start" x="282.5" y="-502.5" font-family="Open Sans" font-size="10.00" fill="white">prompt motor</text><polygon fill="url(#g-modulenz631759dbgqz0zdm42t9)" stroke="#009688" points="362.5,-486.5 362.5,-523.5 365.5,-523.5 365.5,-486.5 362.5,-486.5"/></g><!-- process_block_22&#45;&gt;module_block_25 --><g id="edge30" class="edge"><title>process_block_22->module_block_25</title><path fill="none" stroke="#000000" d="M268.475,-541.852C273.415,-538.113 278.695,-534.116 283.882,-530.19"/><polygon fill="#000000" stroke="#000000" points="286.031,-532.953 291.892,-524.127 281.806,-527.372 286.031,-532.953"/></g><!-- process_block_23&#45;&gt;module_block_25 --><g id="edge31" class="edge"><title>process_block_23->module_block_25</title><path fill="none" stroke="#000000" d="M316.5,-541.852C316.5,-539.36 316.5,-536.752 316.5,-534.128"/><polygon fill="#000000" stroke="#000000" points="320,-534.127 316.5,-524.127 313,-534.127 320,-534.127"/></g><!-- process_block_24&#45;&gt;module_block_25 --><g id="edge32" class="edge"><title>process_block_24->module_block_25</title><path fill="none" stroke="#000000" d="M369.194,-541.852C363.645,-538.024 357.704,-533.925 351.883,-529.91"/><polygon fill="#000000" stroke="#000000" points="353.72,-526.925 343.501,-524.127 349.745,-532.687 353.72,-526.925"/></g><!-- process_block_26 --><g id="node26" class="node"><title>process_block_26</title><polygon fill="url(#g-processnz631759dbgqz0zdm42t9)" stroke="#3f51b5" points="348.5,-469 284.5,-469 284.5,-433 348.5,-433 348.5,-469"/><text text-anchor="start" x="291.5" y="-448.5" font-family="Open Sans" font-size="10.00" fill="white">leia motor</text></g><!-- module_block_25&#45;&gt;process_block_26 --><g id="edge33" class="edge"><title>module_block_25->process_block_26</title><path fill="none" stroke="#000000" d="M316.5,-486.744C316.5,-484.354 316.5,-481.867 316.5,-479.367"/><polygon fill="#000000" stroke="#000000" points="320,-479.238 316.5,-469.238 313,-479.238 320,-479.238"/></g><!-- switch_block_27 --><g id="node27" class="node"><title>switch_block_27</title><polygon fill="url(#g-decisionnz631759dbgqz0zdm42t9)" stroke="#d1461b" points="316.5,-415 279.075,-397 316.5,-379 353.925,-397 316.5,-415"/><text text-anchor="start" x="302" y="-394.5" font-family="Open Sans" font-size="10.00" fill="white">motor</text></g><!-- process_block_26&#45;&gt;switch_block_27 --><g id="edge34" class="edge"><title>process_block_26->switch_block_27</title><path fill="none" stroke="#000000" d="M316.5,-432.718C316.5,-430.343 316.5,-427.867 316.5,-425.375"/><polygon fill="#000000" stroke="#000000" points="320,-425.263 316.5,-415.263 313,-425.263 320,-425.263"/></g><!-- process_block_28 --><g id="node28" class="node"><title>process_block_28</title><polygon fill="url(#g-processnz631759dbgqz0zdm42t9)" stroke="#3f51b5" points="281,-361 220,-361 220,-325 281,-325 281,-361"/><text text-anchor="start" x="227" y="-340.5" font-family="Open Sans" font-size="10.00" fill="white">motor = 0</text></g><!-- switch_block_27&#45;&gt;process_block_28 --><g id="edge35" class="edge"><title>switch_block_27->process_block_28</title><path fill="none" stroke="#000000" d="M302.503,-385.548C296.112,-380.319 288.278,-373.909 280.649,-367.667"/><polygon fill="#000000" stroke="#000000" points="282.485,-364.647 272.529,-361.023 278.052,-370.065 282.485,-364.647"/><text text-anchor="start" x="275.454" y="-366.235" font-family="Open Sans" font-weight="bold" font-size="10.00" fill="#000000"> 1 </text></g><!-- process_block_29 --><g id="node29" class="node"><title>process_block_29</title><polygon fill="url(#g-processnz631759dbgqz0zdm42t9)" stroke="#3f51b5" points="374.5,-361 292.5,-361 292.5,-325 374.5,-325 374.5,-361"/><text text-anchor="start" x="299.5" y="-340.5" font-family="Open Sans" font-size="10.00" fill="white">motor = 5.000</text></g><!-- switch_block_27&#45;&gt;process_block_29 --><g id="edge36" class="edge"><title>switch_block_27->process_block_29</title><path fill="none" stroke="#000000" d="M321.509,-381.09C322.519,-377.882 323.608,-374.421 324.704,-370.939"/><polygon fill="#000000" stroke="#000000" points="328.086,-371.853 327.751,-361.263 321.409,-369.751 328.086,-371.853"/><text text-anchor="start" x="312.602" y="-364.265" font-family="Open Sans" font-weight="bold" font-size="10.00" fill="#000000"> 2 </text></g><!-- module_block_30 --><g id="node30" class="node"><title>module_block_30</title><polygon fill="url(#g-modulenz631759dbgqz0zdm42t9)" stroke="#009688" points="215.5,-269.5 215.5,-306.5 217.5,-306.5 217.5,-269.5 215.5,-269.5"/><polygon fill="url(#g-modulenz631759dbgqz0zdm42t9)" stroke="#009688" points="217.5,-269.5 217.5,-306.5 301.5,-306.5 301.5,-269.5 217.5,-269.5"/><text text-anchor="start" x="230.5" y="-285.5" font-family="Open Sans" font-size="10.00" fill="white">prompt PNE</text><polygon fill="url(#g-modulenz631759dbgqz0zdm42t9)" stroke="#009688" points="301.5,-269.5 301.5,-306.5 304.5,-306.5 304.5,-269.5 301.5,-269.5"/></g><!-- process_block_28&#45;&gt;module_block_30 --><g id="edge37" class="edge"><title>process_block_28->module_block_30</title><path fill="none" stroke="#000000" d="M253.497,-324.852C253.909,-322.36 254.339,-319.752 254.773,-317.128"/><polygon fill="#000000" stroke="#000000" points="258.248,-317.564 256.424,-307.127 251.341,-316.423 258.248,-317.564"/></g><!-- process_block_29&#45;&gt;module_block_30 --><g id="edge38" class="edge"><title>process_block_29->module_block_30</title><path fill="none" stroke="#000000" d="M308.859,-324.852C303.782,-321.113 298.355,-317.116 293.024,-313.19"/><polygon fill="#000000" stroke="#000000" points="294.919,-310.239 284.792,-307.127 290.768,-315.876 294.919,-310.239"/></g><!-- process_block_31 --><g id="node31" class="node"><title>process_block_31</title><polygon fill="url(#g-processnz631759dbgqz0zdm42t9)" stroke="#3f51b5" points="286.5,-252 232.5,-252 232.5,-216 286.5,-216 286.5,-252"/><text text-anchor="start" x="240" y="-231.5" font-family="Open Sans" font-size="10.00" fill="white">leia pne</text></g><!-- module_block_30&#45;&gt;process_block_31 --><g id="edge39" class="edge"><title>module_block_30->process_block_31</title><path fill="none" stroke="#000000" d="M259.5,-269.744C259.5,-267.354 259.5,-264.867 259.5,-262.367"/><polygon fill="#000000" stroke="#000000" points="263,-262.238 259.5,-252.238 256,-262.238 263,-262.238"/></g><!-- switch_block_32 --><g id="node32" class="node"><title>switch_block_32</title><polygon fill="url(#g-decisionnz631759dbgqz0zdm42t9)" stroke="#d1461b" points="259.5,-198 231.389,-180 259.5,-162 287.611,-180 259.5,-198"/><text text-anchor="start" x="250.5" y="-177.5" font-family="Open Sans" font-size="10.00" fill="white">pne</text></g><!-- process_block_31&#45;&gt;switch_block_32 --><g id="edge40" class="edge"><title>process_block_31->switch_block_32</title><path fill="none" stroke="#000000" d="M259.5,-215.718C259.5,-213.343 259.5,-210.867 259.5,-208.375"/><polygon fill="#000000" stroke="#000000" points="263,-208.263 259.5,-198.263 256,-208.263 263,-208.263"/></g><!-- process_block_33 --><g id="node33" class="node"><title>process_block_33</title><polygon fill="url(#g-processnz631759dbgqz0zdm42t9)" stroke="#3f51b5" points="540.5,-144 196.5,-144 196.5,-108 540.5,-108 540.5,-144"/><text text-anchor="start" x="203.5" y="-123.5" font-family="Open Sans" font-size="10.00" fill="white">soma = (motor + cor + adc+ model) - (motor + cor + adc + model x0.3</text></g><!-- switch_block_32&#45;&gt;process_block_33 --><g id="edge41" class="edge"><title>switch_block_32->process_block_33</title><path fill="none" stroke="#000000" d="M275.583,-172.032C288.075,-165.844 306.045,-156.941 322.859,-148.611"/><polygon fill="#000000" stroke="#000000" points="324.632,-151.639 332.039,-144.063 321.524,-145.366 324.632,-151.639"/><text text-anchor="start" x="291.413" y="-162.245" font-family="Open Sans" font-weight="bold" font-size="10.00" fill="#000000"> 1 </text></g><!-- process_block_34 --><g id="node34" class="node"><title>process_block_34</title><polygon fill="url(#g-processnz631759dbgqz0zdm42t9)" stroke="#3f51b5" points="185,-144 1.42109e-14,-144 1.42109e-14,-108 185,-108 185,-144"/><text text-anchor="start" x="7" y="-123.5" font-family="Open Sans" font-size="10.00" fill="white">soma = (motor + cor + adc + model)</text></g><!-- switch_block_32&#45;&gt;process_block_34 --><g id="edge42" class="edge"><title>switch_block_32->process_block_34</title><path fill="none" stroke="#000000" d="M240.668,-173.91C220.578,-167.414 187.62,-156.757 157.883,-147.142"/><polygon fill="#000000" stroke="#000000" points="158.953,-143.81 148.362,-144.063 156.8,-150.47 158.953,-143.81"/><text text-anchor="start" x="182.293" y="-162.915" font-family="Open Sans" font-weight="bold" font-size="10.00" fill="#000000"> 2 </text></g><!-- process_block_35 --><g id="node35" class="node"><title>process_block_35</title><polygon fill="url(#g-processnz631759dbgqz0zdm42t9)" stroke="#3f51b5" points="442,-90 295,-90 295,-54 442,-54 442,-90"/><text text-anchor="start" x="302" y="-69.5" font-family="Open Sans" font-size="10.00" fill="white">" O valor do carro é "+soma</text></g><!-- process_block_33&#45;&gt;process_block_35 --><g id="edge43" class="edge"><title>process_block_33->process_block_35</title><path fill="none" stroke="#000000" d="M368.5,-107.718C368.5,-105.343 368.5,-102.867 368.5,-100.375"/><polygon fill="#000000" stroke="#000000" points="372,-100.263 368.5,-90.2631 365,-100.263 372,-100.263"/></g><!-- process_block_34&#45;&gt;process_block_35 --><g id="edge44" class="edge"><title>process_block_34->process_block_35</title><path fill="none" stroke="#000000" d="M184.788,-107.944C217.028,-101.636 253.021,-94.5936 284.546,-88.4258"/><polygon fill="#000000" stroke="#000000" points="285.472,-91.8111 294.614,-86.456 284.128,-84.9414 285.472,-91.8111"/></g><!-- terminator_block_37 --><g id="node37" class="node"><title>terminator_block_37</title><ellipse fill="url(#g-terminatornz631759dbgqz0zdm42t9)" stroke="#C32F06" cx="462.5" cy="-18" rx="27" ry="18"/><text text-anchor="start" x="455" y="-15.5" font-family="Open Sans" font-size="10.00" fill="white">fim</text></g><!-- process_block_35&#45;&gt;terminator_block_37 --><g id="edge46" class="edge"><title>process_block_35->terminator_block_37</title><path fill="none" stroke="#000000" d="M400.062,-53.8686C410.705,-47.7545 422.536,-40.9579 433.013,-34.9395"/><polygon fill="#000000" stroke="#000000" points="434.879,-37.9038 441.807,-29.8876 431.392,-31.834 434.879,-37.9038"/></g><!-- process_block_36&#45;&gt;terminator_block_37 --><g id="edge47" class="edge"><title>process_block_36->terminator_block_37</title><path fill="none" stroke="#000000" d="M556.773,-1087.66C557.069,-1066.17 557.5,-1029.5 557.5,-998 557.5,-998 557.5,-998 557.5,-126 557.5,-85.8912 520.104,-53.5982 492.237,-35.1022"/><polygon fill="#000000" stroke="#000000" points="493.898,-32.0105 483.584,-29.5894 490.137,-37.9143 493.898,-32.0105"/></g><!-- comment_block_38 --><g id="node38" class="node"><title>comment_block_38</title><polygon fill="url(#g-commentnz631759dbgqz0zdm42t9)" stroke="#ffab40" points="436.5,-690 320.5,-690 320.5,-650 442.5,-650 442.5,-684 436.5,-690"/><polyline fill="white" stroke="#ffab40" points="436.5,-690 436.5,-684 " stroke-width="0"/><polyline fill="white" stroke="#ffab40" points="442.5,-684 436.5,-684 " stroke-width="0"/><text text-anchor="start" x="324.5" y="-679" font-family="Open Sans" font-size="8.00" fill="black">  Cada escolha caso me permite</text><text text-anchor="start" x="331.5" y="-671" font-family="Open Sans" font-size="8.00" fill="black">  atribuir um valor a variável</text><text text-anchor="start" x="330.5" y="-663" font-family="Open Sans" font-size="8.00" fill="black">  </text><text text-anchor="start" x="334.5" y="-663" font-family="Open Sans" font-style="italic" font-size="8.00" fill="black">cor</text><text text-anchor="start" x="345.5" y="-663" font-family="Open Sans" font-size="8.00" fill="black"> , conforme a atribuição</text><text text-anchor="start" x="331.5" y="-655" font-family="Open Sans" font-size="8.00" fill="black">  do usuário no prompt cor</text></g><!-- comment_block_38&#45;&gt;switch_block_21 --><g id="edge48" class="edge"><title>comment_block_38->switch_block_21</title><path fill="none" stroke="#000000" stroke-dasharray="5,2" d="M358.034,-649.783C347.997,-641.136 336.712,-631.413 328.441,-624.288"/></g><!-- comment_block_39 --><g id="node39" class="node"><title>comment_block_39</title><polygon fill="url(#g-commentnz631759dbgqz0zdm42t9)" stroke="#ffab40" points="409.5,-198 321.5,-198 321.5,-162 415.5,-162 415.5,-192 409.5,-198"/><polyline fill="white" stroke="#ffab40" points="409.5,-198 409.5,-192 " stroke-width="0"/><polyline fill="white" stroke="#ffab40" points="415.5,-192 409.5,-192 " stroke-width="0"/><text text-anchor="start" x="325.5" y="-176.5" font-family="Open Sans" font-size="8.00" fill="black">  Calculo com desconto</text></g><!-- comment_block_39&#45;&gt;process_block_33 --><g id="edge49" class="edge"><title>comment_block_39->process_block_33</title><path fill="none" stroke="#000000" stroke-dasharray="5,2" d="M368.5,-161.718C368.5,-156.088 368.5,-149.892 368.5,-144.263"/></g><!-- comment_block_40 --><g id="node40" class="node"><title>comment_block_40</title><polygon fill="url(#g-commentnz631759dbgqz0zdm42t9)" stroke="#ffab40" points="133,-198 46,-198 46,-162 139,-162 139,-192 133,-198"/><polyline fill="white" stroke="#ffab40" points="133,-198 133,-192 " stroke-width="0"/><polyline fill="white" stroke="#ffab40" points="139,-192 133,-192 " stroke-width="0"/><text text-anchor="start" x="50" y="-176.5" font-family="Open Sans" font-size="8.00" fill="black">  Calculo sem desconto</text></g><!-- comment_block_40&#45;&gt;process_block_34 --><g id="edge50" class="edge"><title>comment_block_40->process_block_34</title><path fill="none" stroke="#000000" stroke-dasharray="5,2" d="M92.5,-161.718C92.5,-156.088 92.5,-149.892 92.5,-144.263"/></g></g></svg>